ISO-10303-21;
HEADER;
/* Generated by software containing ST-Developer
 * from STEP Tools, Inc. (www.steptools.com) 
 */

FILE_DESCRIPTION(
/* description */ ('',
'CAx-IF Rec.Pracs.---Representation and Presentation of Product Manufa
cturing Information (PMI)---4.0---2014-10-13'),
/* implementation_level */ '2;1');

FILE_NAME(
/* name */ 
'C:\\Users\\gisen\\Documents\\CAD\\inventor\\git\\sionyx_aurora_light_
attachment_cad\\led_holder_01.stp',
/* time_stamp */ '2025-10-28T21:22:57+09:00',
/* author */ ('gisen'),
/* organization */ (''),
/* preprocessor_version */ 'ST-DEVELOPER v18.1',
/* originating_system */ 'Autodesk Inventor 2022',
/* authorisation */ '');

FILE_SCHEMA (('AP242_MANAGED_MODEL_BASED_3D_ENGINEERING_MIM_LF { 1 0 10303 442 1 1 4 }'));
ENDSEC;

DATA;
#10=MECHANICAL_DESIGN_AND_DRAUGHTING_RELATIONSHIP('\X2\30A230A430BD30E1\X0\',
'',#25,#26);
#11=MECHANICAL_DESIGN_AND_DRAUGHTING_RELATIONSHIP('\X2\6B639762\X0\','',
#27,#26);
#12=MECHANICAL_DESIGN_AND_DRAUGHTING_RELATIONSHIP('\X2\4E0A\X0\','',#28,
#26);
#13=MECHANICAL_DESIGN_AND_DRAUGHTING_RELATIONSHIP('\X2\53F3\X0\','',#29,
#26);
#14=MAPPED_ITEM('',#19,#657);
#15=MAPPED_ITEM('',#20,#658);
#16=MAPPED_ITEM('',#21,#659);
#17=MAPPED_ITEM('',#22,#660);
#18=MAPPED_ITEM('',#23,#661);
#19=REPRESENTATION_MAP(#657,#24);
#20=REPRESENTATION_MAP(#658,#1062);
#21=REPRESENTATION_MAP(#659,#24);
#22=REPRESENTATION_MAP(#660,#24);
#23=REPRESENTATION_MAP(#661,#24);
#24=ADVANCED_BREP_SHAPE_REPRESENTATION('\X2\30A230A430BD30E1\X0\',(#45),
#1054);
#25=DRAUGHTING_MODEL('\X2\30A230A430BD30E1\X0\',(#14,#31),#1054);
#26=DRAUGHTING_MODEL('',(#15,#658),#1054);
#27=DRAUGHTING_MODEL('\X2\6B639762\X0\',(#16,#32),#1054);
#28=DRAUGHTING_MODEL('\X2\4E0A\X0\',(#17,#33),#1054);
#29=DRAUGHTING_MODEL('\X2\53F3\X0\',(#18,#34),#1054);
#30=MECHANICAL_DESIGN_GEOMETRIC_PRESENTATION_REPRESENTATION('',(#43),#1055);
#31=CAMERA_MODEL_D3('\X2\30A230A430BD30E1\X0\',#649,#35);
#32=CAMERA_MODEL_D3('\X2\6B639762\X0\',#651,#36);
#33=CAMERA_MODEL_D3('\X2\4E0A\X0\',#653,#37);
#34=CAMERA_MODEL_D3('\X2\53F3\X0\',#655,#38);
#35=VIEW_VOLUME(.PARALLEL.,#1037,16.9875424688562,0.,.F.,0.,.F.,.F.,#39);
#36=VIEW_VOLUME(.PARALLEL.,#1040,117.693146607172,0.,.F.,0.,.F.,.F.,#40);
#37=VIEW_VOLUME(.PARALLEL.,#1043,117.693146607172,0.,.F.,0.,.F.,.F.,#41);
#38=VIEW_VOLUME(.PARALLEL.,#1046,117.693146607172,0.,.F.,0.,.F.,.F.,#42);
#39=PLANAR_BOX('view window',27.8110236220472,20.,#650);
#40=PLANAR_BOX('view window',27.8110236220472,20.,#652);
#41=PLANAR_BOX('view window',27.8110236220472,20.,#654);
#42=PLANAR_BOX('view window',27.8110236220472,20.,#656);
#43=STYLED_ITEM('',(#1071),#45);
#44=STYLED_ITEM('',(#1072),#15);
#45=MANIFOLD_SOLID_BREP('\X2\30BD30EA30C330C9\X0\1',#574);
#46=B_SPLINE_CURVE_WITH_KNOTS('',3,(#909,#910,#911,#912),.UNSPECIFIED.,
 .F.,.F.,(4,4),(-1.7314023311336,-1.68192718519785),.UNSPECIFIED.);
#47=B_SPLINE_CURVE_WITH_KNOTS('',3,(#916,#917,#918,#919,#920,#921,#922,
#923,#924,#925,#926,#927,#928,#929,#930,#931,#932,#933),.UNSPECIFIED.,.F.,
 .F.,(4,2,2,2,2,2,2,2,4),(0.0494344965550893,0.209382258157269,0.418764516314539,
0.628001155787557,0.837237795260575,1.04647443473359,1.25571107420661,1.46509333236388,
1.62504109396606),.UNSPECIFIED.);
#48=B_SPLINE_CURVE_WITH_KNOTS('',3,(#936,#937,#938,#939,#940,#941,#942,
#943,#944,#945,#946,#947,#948,#949,#950,#951,#952,#953,#954,#955,#956),
 .UNSPECIFIED.,.F.,.F.,(4,2,2,2,2,2,2,2,3,4),(-1.68192718519785,-1.47153569980819,
-1.26114421441852,-1.05105390350872,-0.840963592598926,-0.630873281689128,
-0.420782970779329,-0.210391485389664,0.,0.0494751479444471),
 .UNSPECIFIED.);
#49=FACE_BOUND('',#114,.T.);
#50=FACE_BOUND('',#118,.T.);
#51=FACE_BOUND('',#123,.T.);
#52=FACE_BOUND('',#126,.T.);
#53=FACE_BOUND('',#129,.T.);
#54=FACE_BOUND('',#134,.T.);
#55=FACE_BOUND('',#135,.T.);
#56=FACE_BOUND('',#138,.T.);
#57=FACE_BOUND('',#139,.T.);
#58=FACE_BOUND('',#142,.T.);
#59=FACE_BOUND('',#143,.T.);
#60=FACE_BOUND('',#146,.T.);
#61=FACE_BOUND('',#149,.T.);
#62=FACE_BOUND('',#150,.T.);
#63=PLANE('',#600);
#64=PLANE('',#607);
#65=PLANE('',#617);
#66=PLANE('',#621);
#67=PLANE('',#625);
#68=PLANE('',#632);
#69=PLANE('',#634);
#70=PLANE('',#638);
#71=PLANE('',#639);
#72=PLANE('',#640);
#73=PLANE('',#641);
#74=PLANE('',#642);
#75=PLANE('',#643);
#76=PLANE('',#644);
#77=PLANE('',#645);
#78=PLANE('',#646);
#79=PLANE('',#647);
#80=PLANE('',#648);
#81=FACE_OUTER_BOUND('',#111,.T.);
#82=FACE_OUTER_BOUND('',#112,.T.);
#83=FACE_OUTER_BOUND('',#113,.T.);
#84=FACE_OUTER_BOUND('',#115,.T.);
#85=FACE_OUTER_BOUND('',#116,.T.);
#86=FACE_OUTER_BOUND('',#117,.T.);
#87=FACE_OUTER_BOUND('',#119,.T.);
#88=FACE_OUTER_BOUND('',#120,.T.);
#89=FACE_OUTER_BOUND('',#121,.T.);
#90=FACE_OUTER_BOUND('',#122,.T.);
#91=FACE_OUTER_BOUND('',#124,.T.);
#92=FACE_OUTER_BOUND('',#125,.T.);
#93=FACE_OUTER_BOUND('',#127,.T.);
#94=FACE_OUTER_BOUND('',#128,.T.);
#95=FACE_OUTER_BOUND('',#130,.T.);
#96=FACE_OUTER_BOUND('',#131,.T.);
#97=FACE_OUTER_BOUND('',#132,.T.);
#98=FACE_OUTER_BOUND('',#133,.T.);
#99=FACE_OUTER_BOUND('',#136,.T.);
#100=FACE_OUTER_BOUND('',#137,.T.);
#101=FACE_OUTER_BOUND('',#140,.T.);
#102=FACE_OUTER_BOUND('',#141,.T.);
#103=FACE_OUTER_BOUND('',#144,.T.);
#104=FACE_OUTER_BOUND('',#145,.T.);
#105=FACE_OUTER_BOUND('',#147,.T.);
#106=FACE_OUTER_BOUND('',#148,.T.);
#107=FACE_OUTER_BOUND('',#151,.T.);
#108=FACE_OUTER_BOUND('',#152,.T.);
#109=FACE_OUTER_BOUND('',#153,.T.);
#110=FACE_OUTER_BOUND('',#154,.T.);
#111=EDGE_LOOP('',(#388,#389,#390,#391));
#112=EDGE_LOOP('',(#392,#393,#394,#395));
#113=EDGE_LOOP('',(#396));
#114=EDGE_LOOP('',(#397));
#115=EDGE_LOOP('',(#398,#399,#400,#401));
#116=EDGE_LOOP('',(#402,#403,#404,#405));
#117=EDGE_LOOP('',(#406));
#118=EDGE_LOOP('',(#407));
#119=EDGE_LOOP('',(#408,#409,#410,#411));
#120=EDGE_LOOP('',(#412,#413,#414,#415));
#121=EDGE_LOOP('',(#416,#417,#418,#419));
#122=EDGE_LOOP('',(#420));
#123=EDGE_LOOP('',(#421));
#124=EDGE_LOOP('',(#422,#423,#424,#425));
#125=EDGE_LOOP('',(#426));
#126=EDGE_LOOP('',(#427));
#127=EDGE_LOOP('',(#428,#429,#430,#431));
#128=EDGE_LOOP('',(#432));
#129=EDGE_LOOP('',(#433));
#130=EDGE_LOOP('',(#434,#435,#436,#437,#438,#439,#440,#441));
#131=EDGE_LOOP('',(#442,#443,#444,#445,#446,#447));
#132=EDGE_LOOP('',(#448,#449,#450,#451));
#133=EDGE_LOOP('',(#452,#453,#454,#455,#456,#457));
#134=EDGE_LOOP('',(#458));
#135=EDGE_LOOP('',(#459));
#136=EDGE_LOOP('',(#460,#461,#462,#463,#464,#465,#466));
#137=EDGE_LOOP('',(#467,#468,#469,#470,#471,#472));
#138=EDGE_LOOP('',(#473));
#139=EDGE_LOOP('',(#474));
#140=EDGE_LOOP('',(#475,#476,#477,#478));
#141=EDGE_LOOP('',(#479,#480,#481,#482));
#142=EDGE_LOOP('',(#483));
#143=EDGE_LOOP('',(#484));
#144=EDGE_LOOP('',(#485,#486,#487,#488));
#145=EDGE_LOOP('',(#489,#490,#491,#492));
#146=EDGE_LOOP('',(#493));
#147=EDGE_LOOP('',(#494,#495,#496,#497));
#148=EDGE_LOOP('',(#498,#499,#500,#501));
#149=EDGE_LOOP('',(#502));
#150=EDGE_LOOP('',(#503));
#151=EDGE_LOOP('',(#504,#505,#506,#507));
#152=EDGE_LOOP('',(#508,#509,#510,#511));
#153=EDGE_LOOP('',(#512,#513,#514,#515,#516,#517,#518,#519,#520,#521));
#154=EDGE_LOOP('',(#522,#523,#524,#525,#526,#527,#528,#529,#530,#531));
#155=LINE('',#849,#199);
#156=LINE('',#855,#200);
#157=LINE('',#862,#201);
#158=LINE('',#868,#202);
#159=LINE('',#875,#203);
#160=LINE('',#881,#204);
#161=LINE('',#887,#205);
#162=LINE('',#894,#206);
#163=LINE('',#901,#207);
#164=LINE('',#914,#208);
#165=LINE('',#935,#209);
#166=LINE('',#957,#210);
#167=LINE('',#962,#211);
#168=LINE('',#966,#212);
#169=LINE('',#971,#213);
#170=LINE('',#975,#214);
#171=LINE('',#977,#215);
#172=LINE('',#978,#216);
#173=LINE('',#979,#217);
#174=LINE('',#984,#218);
#175=LINE('',#988,#219);
#176=LINE('',#989,#220);
#177=LINE('',#991,#221);
#178=LINE('',#992,#222);
#179=LINE('',#997,#223);
#180=LINE('',#999,#224);
#181=LINE('',#1001,#225);
#182=LINE('',#1002,#226);
#183=LINE('',#1005,#227);
#184=LINE('',#1007,#228);
#185=LINE('',#1008,#229);
#186=LINE('',#1011,#230);
#187=LINE('',#1013,#231);
#188=LINE('',#1014,#232);
#189=LINE('',#1017,#233);
#190=LINE('',#1019,#234);
#191=LINE('',#1020,#235);
#192=LINE('',#1023,#236);
#193=LINE('',#1025,#237);
#194=LINE('',#1026,#238);
#195=LINE('',#1028,#239);
#196=LINE('',#1029,#240);
#197=LINE('',#1031,#241);
#198=LINE('',#1032,#242);
#199=VECTOR('',#668,1.6);
#200=VECTOR('',#675,2.25);
#201=VECTOR('',#684,1.6);
#202=VECTOR('',#691,2.25);
#203=VECTOR('',#700,1.6);
#204=VECTOR('',#707,1.6);
#205=VECTOR('',#714,2.25);
#206=VECTOR('',#723,2.25);
#207=VECTOR('',#732,3.2);
#208=VECTOR('',#741,10.);
#209=VECTOR('',#742,10.);
#210=VECTOR('',#743,5.5);
#211=VECTOR('',#748,10.);
#212=VECTOR('',#751,10.);
#213=VECTOR('',#758,10.);
#214=VECTOR('',#761,10.);
#215=VECTOR('',#762,10.);
#216=VECTOR('',#763,10.);
#217=VECTOR('',#764,10.);
#218=VECTOR('',#769,10.);
#219=VECTOR('',#774,10.);
#220=VECTOR('',#775,10.);
#221=VECTOR('',#776,10.);
#222=VECTOR('',#777,10.);
#223=VECTOR('',#782,10.);
#224=VECTOR('',#783,10.);
#225=VECTOR('',#784,10.);
#226=VECTOR('',#785,10.);
#227=VECTOR('',#788,10.);
#228=VECTOR('',#789,10.);
#229=VECTOR('',#790,10.);
#230=VECTOR('',#793,10.);
#231=VECTOR('',#794,10.);
#232=VECTOR('',#795,10.);
#233=VECTOR('',#798,10.);
#234=VECTOR('',#799,10.);
#235=VECTOR('',#800,10.);
#236=VECTOR('',#803,10.);
#237=VECTOR('',#804,10.);
#238=VECTOR('',#805,10.);
#239=VECTOR('',#808,10.);
#240=VECTOR('',#809,10.);
#241=VECTOR('',#812,10.);
#242=VECTOR('',#813,10.);
#243=CIRCLE('',#595,1.6);
#244=CIRCLE('',#596,1.6);
#245=CIRCLE('',#598,2.25);
#246=CIRCLE('',#599,2.25);
#247=CIRCLE('',#602,1.6);
#248=CIRCLE('',#603,1.6);
#249=CIRCLE('',#605,2.25);
#250=CIRCLE('',#606,2.25);
#251=CIRCLE('',#609,1.6);
#252=CIRCLE('',#610,1.6);
#253=CIRCLE('',#612,1.6);
#254=CIRCLE('',#613,1.6);
#255=CIRCLE('',#615,2.25);
#256=CIRCLE('',#616,2.25);
#257=CIRCLE('',#619,2.25);
#258=CIRCLE('',#620,2.25);
#259=CIRCLE('',#623,3.2);
#260=CIRCLE('',#624,3.2);
#261=CIRCLE('',#626,5.5);
#262=CIRCLE('',#629,15.);
#263=CIRCLE('',#630,15.);
#264=CIRCLE('',#631,15.);
#265=CIRCLE('',#633,12.7);
#266=CIRCLE('',#636,12.7);
#267=CIRCLE('',#637,12.7);
#268=VERTEX_POINT('',#846);
#269=VERTEX_POINT('',#848);
#270=VERTEX_POINT('',#852);
#271=VERTEX_POINT('',#854);
#272=VERTEX_POINT('',#859);
#273=VERTEX_POINT('',#861);
#274=VERTEX_POINT('',#865);
#275=VERTEX_POINT('',#867);
#276=VERTEX_POINT('',#872);
#277=VERTEX_POINT('',#874);
#278=VERTEX_POINT('',#878);
#279=VERTEX_POINT('',#880);
#280=VERTEX_POINT('',#884);
#281=VERTEX_POINT('',#886);
#282=VERTEX_POINT('',#891);
#283=VERTEX_POINT('',#893);
#284=VERTEX_POINT('',#898);
#285=VERTEX_POINT('',#900);
#286=VERTEX_POINT('',#904);
#287=VERTEX_POINT('',#907);
#288=VERTEX_POINT('',#908);
#289=VERTEX_POINT('',#913);
#290=VERTEX_POINT('',#915);
#291=VERTEX_POINT('',#934);
#292=VERTEX_POINT('',#959);
#293=VERTEX_POINT('',#961);
#294=VERTEX_POINT('',#963);
#295=VERTEX_POINT('',#965);
#296=VERTEX_POINT('',#969);
#297=VERTEX_POINT('',#973);
#298=VERTEX_POINT('',#974);
#299=VERTEX_POINT('',#976);
#300=VERTEX_POINT('',#981);
#301=VERTEX_POINT('',#983);
#302=VERTEX_POINT('',#987);
#303=VERTEX_POINT('',#990);
#304=VERTEX_POINT('',#995);
#305=VERTEX_POINT('',#996);
#306=VERTEX_POINT('',#998);
#307=VERTEX_POINT('',#1000);
#308=VERTEX_POINT('',#1004);
#309=VERTEX_POINT('',#1006);
#310=VERTEX_POINT('',#1010);
#311=VERTEX_POINT('',#1012);
#312=VERTEX_POINT('',#1016);
#313=VERTEX_POINT('',#1018);
#314=VERTEX_POINT('',#1022);
#315=VERTEX_POINT('',#1024);
#316=EDGE_CURVE('',#268,#268,#243,.T.);
#317=EDGE_CURVE('',#268,#269,#155,.T.);
#318=EDGE_CURVE('',#269,#269,#244,.T.);
#319=EDGE_CURVE('',#270,#270,#245,.T.);
#320=EDGE_CURVE('',#270,#271,#156,.T.);
#321=EDGE_CURVE('',#271,#271,#246,.T.);
#322=EDGE_CURVE('',#272,#272,#247,.T.);
#323=EDGE_CURVE('',#272,#273,#157,.T.);
#324=EDGE_CURVE('',#273,#273,#248,.T.);
#325=EDGE_CURVE('',#274,#274,#249,.T.);
#326=EDGE_CURVE('',#274,#275,#158,.T.);
#327=EDGE_CURVE('',#275,#275,#250,.T.);
#328=EDGE_CURVE('',#276,#276,#251,.T.);
#329=EDGE_CURVE('',#276,#277,#159,.T.);
#330=EDGE_CURVE('',#277,#277,#252,.T.);
#331=EDGE_CURVE('',#278,#278,#253,.T.);
#332=EDGE_CURVE('',#278,#279,#160,.T.);
#333=EDGE_CURVE('',#279,#279,#254,.T.);
#334=EDGE_CURVE('',#280,#280,#255,.T.);
#335=EDGE_CURVE('',#280,#281,#161,.T.);
#336=EDGE_CURVE('',#281,#281,#256,.T.);
#337=EDGE_CURVE('',#282,#282,#257,.T.);
#338=EDGE_CURVE('',#282,#283,#162,.T.);
#339=EDGE_CURVE('',#283,#283,#258,.T.);
#340=EDGE_CURVE('',#284,#284,#259,.T.);
#341=EDGE_CURVE('',#284,#285,#163,.T.);
#342=EDGE_CURVE('',#285,#285,#260,.T.);
#343=EDGE_CURVE('',#286,#286,#261,.T.);
#344=EDGE_CURVE('',#287,#288,#46,.T.);
#345=EDGE_CURVE('',#289,#287,#164,.T.);
#346=EDGE_CURVE('',#290,#289,#47,.T.);
#347=EDGE_CURVE('',#291,#290,#165,.T.);
#348=EDGE_CURVE('',#288,#291,#48,.T.);
#349=EDGE_CURVE('',#288,#286,#166,.T.);
#350=EDGE_CURVE('',#292,#289,#262,.T.);
#351=EDGE_CURVE('',#292,#293,#167,.T.);
#352=EDGE_CURVE('',#293,#294,#263,.T.);
#353=EDGE_CURVE('',#295,#294,#168,.T.);
#354=EDGE_CURVE('',#290,#295,#264,.T.);
#355=EDGE_CURVE('',#287,#296,#265,.T.);
#356=EDGE_CURVE('',#296,#292,#169,.T.);
#357=EDGE_CURVE('',#297,#298,#170,.T.);
#358=EDGE_CURVE('',#297,#299,#171,.T.);
#359=EDGE_CURVE('',#299,#293,#172,.T.);
#360=EDGE_CURVE('',#298,#296,#173,.T.);
#361=EDGE_CURVE('',#300,#291,#266,.T.);
#362=EDGE_CURVE('',#301,#300,#174,.T.);
#363=EDGE_CURVE('',#298,#301,#267,.T.);
#364=EDGE_CURVE('',#301,#302,#175,.T.);
#365=EDGE_CURVE('',#295,#300,#176,.T.);
#366=EDGE_CURVE('',#294,#303,#177,.T.);
#367=EDGE_CURVE('',#302,#303,#178,.T.);
#368=EDGE_CURVE('',#304,#305,#179,.T.);
#369=EDGE_CURVE('',#305,#306,#180,.T.);
#370=EDGE_CURVE('',#307,#306,#181,.T.);
#371=EDGE_CURVE('',#304,#307,#182,.T.);
#372=EDGE_CURVE('',#308,#304,#183,.T.);
#373=EDGE_CURVE('',#309,#307,#184,.T.);
#374=EDGE_CURVE('',#308,#309,#185,.T.);
#375=EDGE_CURVE('',#310,#308,#186,.T.);
#376=EDGE_CURVE('',#311,#309,#187,.T.);
#377=EDGE_CURVE('',#310,#311,#188,.T.);
#378=EDGE_CURVE('',#312,#310,#189,.T.);
#379=EDGE_CURVE('',#313,#311,#190,.T.);
#380=EDGE_CURVE('',#312,#313,#191,.T.);
#381=EDGE_CURVE('',#314,#312,#192,.T.);
#382=EDGE_CURVE('',#315,#313,#193,.T.);
#383=EDGE_CURVE('',#314,#315,#194,.T.);
#384=EDGE_CURVE('',#314,#297,#195,.T.);
#385=EDGE_CURVE('',#315,#299,#196,.T.);
#386=EDGE_CURVE('',#305,#302,#197,.T.);
#387=EDGE_CURVE('',#306,#303,#198,.T.);
#388=ORIENTED_EDGE('',*,*,#316,.F.);
#389=ORIENTED_EDGE('',*,*,#317,.T.);
#390=ORIENTED_EDGE('',*,*,#318,.F.);
#391=ORIENTED_EDGE('',*,*,#317,.F.);
#392=ORIENTED_EDGE('',*,*,#319,.F.);
#393=ORIENTED_EDGE('',*,*,#320,.T.);
#394=ORIENTED_EDGE('',*,*,#321,.F.);
#395=ORIENTED_EDGE('',*,*,#320,.F.);
#396=ORIENTED_EDGE('',*,*,#321,.T.);
#397=ORIENTED_EDGE('',*,*,#316,.T.);
#398=ORIENTED_EDGE('',*,*,#322,.F.);
#399=ORIENTED_EDGE('',*,*,#323,.T.);
#400=ORIENTED_EDGE('',*,*,#324,.F.);
#401=ORIENTED_EDGE('',*,*,#323,.F.);
#402=ORIENTED_EDGE('',*,*,#325,.F.);
#403=ORIENTED_EDGE('',*,*,#326,.T.);
#404=ORIENTED_EDGE('',*,*,#327,.F.);
#405=ORIENTED_EDGE('',*,*,#326,.F.);
#406=ORIENTED_EDGE('',*,*,#327,.T.);
#407=ORIENTED_EDGE('',*,*,#322,.T.);
#408=ORIENTED_EDGE('',*,*,#328,.F.);
#409=ORIENTED_EDGE('',*,*,#329,.T.);
#410=ORIENTED_EDGE('',*,*,#330,.F.);
#411=ORIENTED_EDGE('',*,*,#329,.F.);
#412=ORIENTED_EDGE('',*,*,#331,.F.);
#413=ORIENTED_EDGE('',*,*,#332,.T.);
#414=ORIENTED_EDGE('',*,*,#333,.F.);
#415=ORIENTED_EDGE('',*,*,#332,.F.);
#416=ORIENTED_EDGE('',*,*,#334,.F.);
#417=ORIENTED_EDGE('',*,*,#335,.T.);
#418=ORIENTED_EDGE('',*,*,#336,.T.);
#419=ORIENTED_EDGE('',*,*,#335,.F.);
#420=ORIENTED_EDGE('',*,*,#336,.F.);
#421=ORIENTED_EDGE('',*,*,#328,.T.);
#422=ORIENTED_EDGE('',*,*,#337,.F.);
#423=ORIENTED_EDGE('',*,*,#338,.T.);
#424=ORIENTED_EDGE('',*,*,#339,.T.);
#425=ORIENTED_EDGE('',*,*,#338,.F.);
#426=ORIENTED_EDGE('',*,*,#339,.F.);
#427=ORIENTED_EDGE('',*,*,#331,.T.);
#428=ORIENTED_EDGE('',*,*,#340,.F.);
#429=ORIENTED_EDGE('',*,*,#341,.T.);
#430=ORIENTED_EDGE('',*,*,#342,.F.);
#431=ORIENTED_EDGE('',*,*,#341,.F.);
#432=ORIENTED_EDGE('',*,*,#343,.F.);
#433=ORIENTED_EDGE('',*,*,#340,.T.);
#434=ORIENTED_EDGE('',*,*,#344,.F.);
#435=ORIENTED_EDGE('',*,*,#345,.F.);
#436=ORIENTED_EDGE('',*,*,#346,.F.);
#437=ORIENTED_EDGE('',*,*,#347,.F.);
#438=ORIENTED_EDGE('',*,*,#348,.F.);
#439=ORIENTED_EDGE('',*,*,#349,.T.);
#440=ORIENTED_EDGE('',*,*,#343,.T.);
#441=ORIENTED_EDGE('',*,*,#349,.F.);
#442=ORIENTED_EDGE('',*,*,#346,.T.);
#443=ORIENTED_EDGE('',*,*,#350,.F.);
#444=ORIENTED_EDGE('',*,*,#351,.T.);
#445=ORIENTED_EDGE('',*,*,#352,.T.);
#446=ORIENTED_EDGE('',*,*,#353,.F.);
#447=ORIENTED_EDGE('',*,*,#354,.F.);
#448=ORIENTED_EDGE('',*,*,#345,.T.);
#449=ORIENTED_EDGE('',*,*,#355,.T.);
#450=ORIENTED_EDGE('',*,*,#356,.T.);
#451=ORIENTED_EDGE('',*,*,#350,.T.);
#452=ORIENTED_EDGE('',*,*,#357,.F.);
#453=ORIENTED_EDGE('',*,*,#358,.T.);
#454=ORIENTED_EDGE('',*,*,#359,.T.);
#455=ORIENTED_EDGE('',*,*,#351,.F.);
#456=ORIENTED_EDGE('',*,*,#356,.F.);
#457=ORIENTED_EDGE('',*,*,#360,.F.);
#458=ORIENTED_EDGE('',*,*,#319,.T.);
#459=ORIENTED_EDGE('',*,*,#325,.T.);
#460=ORIENTED_EDGE('',*,*,#344,.T.);
#461=ORIENTED_EDGE('',*,*,#348,.T.);
#462=ORIENTED_EDGE('',*,*,#361,.F.);
#463=ORIENTED_EDGE('',*,*,#362,.F.);
#464=ORIENTED_EDGE('',*,*,#363,.F.);
#465=ORIENTED_EDGE('',*,*,#360,.T.);
#466=ORIENTED_EDGE('',*,*,#355,.F.);
#467=ORIENTED_EDGE('',*,*,#364,.F.);
#468=ORIENTED_EDGE('',*,*,#362,.T.);
#469=ORIENTED_EDGE('',*,*,#365,.F.);
#470=ORIENTED_EDGE('',*,*,#353,.T.);
#471=ORIENTED_EDGE('',*,*,#366,.T.);
#472=ORIENTED_EDGE('',*,*,#367,.F.);
#473=ORIENTED_EDGE('',*,*,#334,.T.);
#474=ORIENTED_EDGE('',*,*,#337,.T.);
#475=ORIENTED_EDGE('',*,*,#347,.T.);
#476=ORIENTED_EDGE('',*,*,#354,.T.);
#477=ORIENTED_EDGE('',*,*,#365,.T.);
#478=ORIENTED_EDGE('',*,*,#361,.T.);
#479=ORIENTED_EDGE('',*,*,#368,.T.);
#480=ORIENTED_EDGE('',*,*,#369,.T.);
#481=ORIENTED_EDGE('',*,*,#370,.F.);
#482=ORIENTED_EDGE('',*,*,#371,.F.);
#483=ORIENTED_EDGE('',*,*,#330,.T.);
#484=ORIENTED_EDGE('',*,*,#333,.T.);
#485=ORIENTED_EDGE('',*,*,#372,.T.);
#486=ORIENTED_EDGE('',*,*,#371,.T.);
#487=ORIENTED_EDGE('',*,*,#373,.F.);
#488=ORIENTED_EDGE('',*,*,#374,.F.);
#489=ORIENTED_EDGE('',*,*,#375,.T.);
#490=ORIENTED_EDGE('',*,*,#374,.T.);
#491=ORIENTED_EDGE('',*,*,#376,.F.);
#492=ORIENTED_EDGE('',*,*,#377,.F.);
#493=ORIENTED_EDGE('',*,*,#342,.T.);
#494=ORIENTED_EDGE('',*,*,#378,.T.);
#495=ORIENTED_EDGE('',*,*,#377,.T.);
#496=ORIENTED_EDGE('',*,*,#379,.F.);
#497=ORIENTED_EDGE('',*,*,#380,.F.);
#498=ORIENTED_EDGE('',*,*,#381,.T.);
#499=ORIENTED_EDGE('',*,*,#380,.T.);
#500=ORIENTED_EDGE('',*,*,#382,.F.);
#501=ORIENTED_EDGE('',*,*,#383,.F.);
#502=ORIENTED_EDGE('',*,*,#318,.T.);
#503=ORIENTED_EDGE('',*,*,#324,.T.);
#504=ORIENTED_EDGE('',*,*,#384,.F.);
#505=ORIENTED_EDGE('',*,*,#383,.T.);
#506=ORIENTED_EDGE('',*,*,#385,.T.);
#507=ORIENTED_EDGE('',*,*,#358,.F.);
#508=ORIENTED_EDGE('',*,*,#386,.T.);
#509=ORIENTED_EDGE('',*,*,#367,.T.);
#510=ORIENTED_EDGE('',*,*,#387,.F.);
#511=ORIENTED_EDGE('',*,*,#369,.F.);
#512=ORIENTED_EDGE('',*,*,#387,.T.);
#513=ORIENTED_EDGE('',*,*,#366,.F.);
#514=ORIENTED_EDGE('',*,*,#352,.F.);
#515=ORIENTED_EDGE('',*,*,#359,.F.);
#516=ORIENTED_EDGE('',*,*,#385,.F.);
#517=ORIENTED_EDGE('',*,*,#382,.T.);
#518=ORIENTED_EDGE('',*,*,#379,.T.);
#519=ORIENTED_EDGE('',*,*,#376,.T.);
#520=ORIENTED_EDGE('',*,*,#373,.T.);
#521=ORIENTED_EDGE('',*,*,#370,.T.);
#522=ORIENTED_EDGE('',*,*,#386,.F.);
#523=ORIENTED_EDGE('',*,*,#368,.F.);
#524=ORIENTED_EDGE('',*,*,#372,.F.);
#525=ORIENTED_EDGE('',*,*,#375,.F.);
#526=ORIENTED_EDGE('',*,*,#378,.F.);
#527=ORIENTED_EDGE('',*,*,#381,.F.);
#528=ORIENTED_EDGE('',*,*,#384,.T.);
#529=ORIENTED_EDGE('',*,*,#357,.T.);
#530=ORIENTED_EDGE('',*,*,#363,.T.);
#531=ORIENTED_EDGE('',*,*,#364,.T.);
#532=CYLINDRICAL_SURFACE('',#594,1.6);
#533=CYLINDRICAL_SURFACE('',#597,2.25);
#534=CYLINDRICAL_SURFACE('',#601,1.6);
#535=CYLINDRICAL_SURFACE('',#604,2.25);
#536=CYLINDRICAL_SURFACE('',#608,1.6);
#537=CYLINDRICAL_SURFACE('',#611,1.6);
#538=CYLINDRICAL_SURFACE('',#614,2.25);
#539=CYLINDRICAL_SURFACE('',#618,2.25);
#540=CYLINDRICAL_SURFACE('',#622,3.2);
#541=CYLINDRICAL_SURFACE('',#627,5.5);
#542=CYLINDRICAL_SURFACE('',#628,15.);
#543=CYLINDRICAL_SURFACE('',#635,12.7);
#544=ADVANCED_FACE('',(#81),#532,.F.);
#545=ADVANCED_FACE('',(#82),#533,.F.);
#546=ADVANCED_FACE('',(#83,#49),#63,.F.);
#547=ADVANCED_FACE('',(#84),#534,.F.);
#548=ADVANCED_FACE('',(#85),#535,.F.);
#549=ADVANCED_FACE('',(#86,#50),#64,.F.);
#550=ADVANCED_FACE('',(#87),#536,.F.);
#551=ADVANCED_FACE('',(#88),#537,.F.);
#552=ADVANCED_FACE('',(#89),#538,.F.);
#553=ADVANCED_FACE('',(#90,#51),#65,.T.);
#554=ADVANCED_FACE('',(#91),#539,.F.);
#555=ADVANCED_FACE('',(#92,#52),#66,.T.);
#556=ADVANCED_FACE('',(#93),#540,.F.);
#557=ADVANCED_FACE('',(#94,#53),#67,.F.);
#558=ADVANCED_FACE('',(#95),#541,.F.);
#559=ADVANCED_FACE('',(#96),#542,.F.);
#560=ADVANCED_FACE('',(#97),#68,.F.);
#561=ADVANCED_FACE('',(#98,#54,#55),#69,.T.);
#562=ADVANCED_FACE('',(#99),#543,.F.);
#563=ADVANCED_FACE('',(#100,#56,#57),#70,.T.);
#564=ADVANCED_FACE('',(#101),#71,.F.);
#565=ADVANCED_FACE('',(#102,#58,#59),#72,.T.);
#566=ADVANCED_FACE('',(#103),#73,.T.);
#567=ADVANCED_FACE('',(#104,#60),#74,.T.);
#568=ADVANCED_FACE('',(#105),#75,.T.);
#569=ADVANCED_FACE('',(#106,#61,#62),#76,.T.);
#570=ADVANCED_FACE('',(#107),#77,.T.);
#571=ADVANCED_FACE('',(#108),#78,.T.);
#572=ADVANCED_FACE('',(#109),#79,.T.);
#573=ADVANCED_FACE('',(#110),#80,.F.);
#574=CLOSED_SHELL('',(#544,#545,#546,#547,#548,#549,#550,#551,#552,#553,
#554,#555,#556,#557,#558,#559,#560,#561,#562,#563,#564,#565,#566,#567,#568,
#569,#570,#571,#572,#573));
#575=DERIVED_UNIT_ELEMENT(#577,1.);
#576=DERIVED_UNIT_ELEMENT(#1057,-3.);
#577=(
MASS_UNIT()
NAMED_UNIT(*)
SI_UNIT($,.GRAM.)
);
#578=DERIVED_UNIT((#575,#576));
#579=MEASURE_REPRESENTATION_ITEM('density measure',
POSITIVE_RATIO_MEASURE(1.),#578);
#580=PROPERTY_DEFINITION_REPRESENTATION(#585,#582);
#581=PROPERTY_DEFINITION_REPRESENTATION(#586,#583);
#582=REPRESENTATION('material name',(#584),#1054);
#583=REPRESENTATION('density',(#579),#1054);
#584=DESCRIPTIVE_REPRESENTATION_ITEM('\X2\4E00822C\X0\','\X2\4E00822C\X0\');
#585=PROPERTY_DEFINITION('material property','material name',#1064);
#586=PROPERTY_DEFINITION('material property','density of part',#1064);
#587=DATE_TIME_ROLE('creation_date');
#588=APPLIED_DATE_AND_TIME_ASSIGNMENT(#589,#587,(#1064));
#589=DATE_AND_TIME(#590,#591);
#590=CALENDAR_DATE(2025,28,10);
#591=LOCAL_TIME(0,0,0.,#592);
#592=COORDINATED_UNIVERSAL_TIME_OFFSET(0,0,.BEHIND.);
#593=AXIS2_PLACEMENT_3D('placement',#844,#662,#663);
#594=AXIS2_PLACEMENT_3D('',#845,#664,#665);
#595=AXIS2_PLACEMENT_3D('',#847,#666,#667);
#596=AXIS2_PLACEMENT_3D('',#850,#669,#670);
#597=AXIS2_PLACEMENT_3D('',#851,#671,#672);
#598=AXIS2_PLACEMENT_3D('',#853,#673,#674);
#599=AXIS2_PLACEMENT_3D('',#856,#676,#677);
#600=AXIS2_PLACEMENT_3D('',#857,#678,#679);
#601=AXIS2_PLACEMENT_3D('',#858,#680,#681);
#602=AXIS2_PLACEMENT_3D('',#860,#682,#683);
#603=AXIS2_PLACEMENT_3D('',#863,#685,#686);
#604=AXIS2_PLACEMENT_3D('',#864,#687,#688);
#605=AXIS2_PLACEMENT_3D('',#866,#689,#690);
#606=AXIS2_PLACEMENT_3D('',#869,#692,#693);
#607=AXIS2_PLACEMENT_3D('',#870,#694,#695);
#608=AXIS2_PLACEMENT_3D('',#871,#696,#697);
#609=AXIS2_PLACEMENT_3D('',#873,#698,#699);
#610=AXIS2_PLACEMENT_3D('',#876,#701,#702);
#611=AXIS2_PLACEMENT_3D('',#877,#703,#704);
#612=AXIS2_PLACEMENT_3D('',#879,#705,#706);
#613=AXIS2_PLACEMENT_3D('',#882,#708,#709);
#614=AXIS2_PLACEMENT_3D('',#883,#710,#711);
#615=AXIS2_PLACEMENT_3D('',#885,#712,#713);
#616=AXIS2_PLACEMENT_3D('',#888,#715,#716);
#617=AXIS2_PLACEMENT_3D('',#889,#717,#718);
#618=AXIS2_PLACEMENT_3D('',#890,#719,#720);
#619=AXIS2_PLACEMENT_3D('',#892,#721,#722);
#620=AXIS2_PLACEMENT_3D('',#895,#724,#725);
#621=AXIS2_PLACEMENT_3D('',#896,#726,#727);
#622=AXIS2_PLACEMENT_3D('',#897,#728,#729);
#623=AXIS2_PLACEMENT_3D('',#899,#730,#731);
#624=AXIS2_PLACEMENT_3D('',#902,#733,#734);
#625=AXIS2_PLACEMENT_3D('',#903,#735,#736);
#626=AXIS2_PLACEMENT_3D('',#905,#737,#738);
#627=AXIS2_PLACEMENT_3D('',#906,#739,#740);
#628=AXIS2_PLACEMENT_3D('',#958,#744,#745);
#629=AXIS2_PLACEMENT_3D('',#960,#746,#747);
#630=AXIS2_PLACEMENT_3D('',#964,#749,#750);
#631=AXIS2_PLACEMENT_3D('',#967,#752,#753);
#632=AXIS2_PLACEMENT_3D('',#968,#754,#755);
#633=AXIS2_PLACEMENT_3D('',#970,#756,#757);
#634=AXIS2_PLACEMENT_3D('',#972,#759,#760);
#635=AXIS2_PLACEMENT_3D('',#980,#765,#766);
#636=AXIS2_PLACEMENT_3D('',#982,#767,#768);
#637=AXIS2_PLACEMENT_3D('',#985,#770,#771);
#638=AXIS2_PLACEMENT_3D('',#986,#772,#773);
#639=AXIS2_PLACEMENT_3D('',#993,#778,#779);
#640=AXIS2_PLACEMENT_3D('',#994,#780,#781);
#641=AXIS2_PLACEMENT_3D('',#1003,#786,#787);
#642=AXIS2_PLACEMENT_3D('',#1009,#791,#792);
#643=AXIS2_PLACEMENT_3D('',#1015,#796,#797);
#644=AXIS2_PLACEMENT_3D('',#1021,#801,#802);
#645=AXIS2_PLACEMENT_3D('',#1027,#806,#807);
#646=AXIS2_PLACEMENT_3D('',#1030,#810,#811);
#647=AXIS2_PLACEMENT_3D('',#1033,#814,#815);
#648=AXIS2_PLACEMENT_3D('',#1034,#816,#817);
#649=AXIS2_PLACEMENT_3D('view reference',#1035,#818,#819);
#650=AXIS2_PLACEMENT_3D('view window',#1036,#820,#821);
#651=AXIS2_PLACEMENT_3D('view reference',#1038,#822,#823);
#652=AXIS2_PLACEMENT_3D('view window',#1039,#824,#825);
#653=AXIS2_PLACEMENT_3D('view reference',#1041,#826,#827);
#654=AXIS2_PLACEMENT_3D('view window',#1042,#828,#829);
#655=AXIS2_PLACEMENT_3D('view reference',#1044,#830,#831);
#656=AXIS2_PLACEMENT_3D('view window',#1045,#832,#833);
#657=AXIS2_PLACEMENT_3D('',#1047,#834,#835);
#658=AXIS2_PLACEMENT_3D('',#1048,#836,#837);
#659=AXIS2_PLACEMENT_3D('',#1049,#838,#839);
#660=AXIS2_PLACEMENT_3D('',#1050,#840,#841);
#661=AXIS2_PLACEMENT_3D('',#1051,#842,#843);
#662=DIRECTION('axis',(0.,0.,1.));
#663=DIRECTION('refdir',(1.,0.,0.));
#664=DIRECTION('center_axis',(0.,-1.,0.));
#665=DIRECTION('ref_axis',(-1.,0.,0.));
#666=DIRECTION('center_axis',(0.,1.,0.));
#667=DIRECTION('ref_axis',(-1.,0.,0.));
#668=DIRECTION('',(0.,1.,0.));
#669=DIRECTION('center_axis',(-5.55111512312578E-16,-1.,0.));
#670=DIRECTION('ref_axis',(-1.,0.,0.));
#671=DIRECTION('center_axis',(0.,-1.,0.));
#672=DIRECTION('ref_axis',(-1.,0.,0.));
#673=DIRECTION('center_axis',(0.,1.,0.));
#674=DIRECTION('ref_axis',(-1.,0.,0.));
#675=DIRECTION('',(0.,1.,0.));
#676=DIRECTION('center_axis',(0.,-1.,0.));
#677=DIRECTION('ref_axis',(-1.,0.,0.));
#678=DIRECTION('center_axis',(0.,1.,0.));
#679=DIRECTION('ref_axis',(0.,0.,-1.));
#680=DIRECTION('center_axis',(0.,-1.,0.));
#681=DIRECTION('ref_axis',(-1.,0.,0.));
#682=DIRECTION('center_axis',(0.,1.,0.));
#683=DIRECTION('ref_axis',(-1.,0.,0.));
#684=DIRECTION('',(0.,1.,0.));
#685=DIRECTION('center_axis',(-5.55111512312578E-16,-1.,0.));
#686=DIRECTION('ref_axis',(-1.,0.,0.));
#687=DIRECTION('center_axis',(0.,-1.,0.));
#688=DIRECTION('ref_axis',(-1.,0.,0.));
#689=DIRECTION('center_axis',(0.,1.,0.));
#690=DIRECTION('ref_axis',(-1.,0.,0.));
#691=DIRECTION('',(0.,1.,0.));
#692=DIRECTION('center_axis',(0.,-1.,0.));
#693=DIRECTION('ref_axis',(-1.,0.,0.));
#694=DIRECTION('center_axis',(0.,1.,0.));
#695=DIRECTION('ref_axis',(0.,0.,-1.));
#696=DIRECTION('center_axis',(0.,1.,0.));
#697=DIRECTION('ref_axis',(1.,0.,0.));
#698=DIRECTION('center_axis',(0.,1.,0.));
#699=DIRECTION('ref_axis',(1.,0.,0.));
#700=DIRECTION('',(0.,1.,0.));
#701=DIRECTION('center_axis',(-7.93016446160826E-17,-1.,0.));
#702=DIRECTION('ref_axis',(1.,0.,0.));
#703=DIRECTION('center_axis',(0.,1.,0.));
#704=DIRECTION('ref_axis',(1.,0.,0.));
#705=DIRECTION('center_axis',(0.,1.,0.));
#706=DIRECTION('ref_axis',(1.,0.,0.));
#707=DIRECTION('',(0.,1.,0.));
#708=DIRECTION('center_axis',(-7.93016446160826E-17,-1.,0.));
#709=DIRECTION('ref_axis',(1.,0.,0.));
#710=DIRECTION('center_axis',(0.,1.,0.));
#711=DIRECTION('ref_axis',(1.,0.,0.));
#712=DIRECTION('center_axis',(0.,1.,0.));
#713=DIRECTION('ref_axis',(1.,0.,0.));
#714=DIRECTION('',(0.,1.,0.));
#715=DIRECTION('center_axis',(0.,1.,0.));
#716=DIRECTION('ref_axis',(1.,0.,0.));
#717=DIRECTION('center_axis',(0.,-1.,0.));
#718=DIRECTION('ref_axis',(0.,0.,-1.));
#719=DIRECTION('center_axis',(0.,1.,0.));
#720=DIRECTION('ref_axis',(1.,0.,0.));
#721=DIRECTION('center_axis',(0.,1.,0.));
#722=DIRECTION('ref_axis',(1.,0.,0.));
#723=DIRECTION('',(0.,1.,0.));
#724=DIRECTION('center_axis',(0.,1.,0.));
#725=DIRECTION('ref_axis',(1.,0.,0.));
#726=DIRECTION('center_axis',(0.,-1.,0.));
#727=DIRECTION('ref_axis',(0.,0.,-1.));
#728=DIRECTION('center_axis',(2.77555756156289E-16,-1.,0.));
#729=DIRECTION('ref_axis',(-1.,-2.77555756156289E-16,0.));
#730=DIRECTION('center_axis',(-1.83697019872103E-16,1.,0.));
#731=DIRECTION('ref_axis',(-1.,-1.83697019872103E-16,0.));
#732=DIRECTION('',(-2.77555756156289E-16,1.,0.));
#733=DIRECTION('center_axis',(1.83697019872103E-16,-1.,0.));
#734=DIRECTION('ref_axis',(-1.,-1.83697019872103E-16,0.));
#735=DIRECTION('center_axis',(-1.83697019872103E-16,1.,0.));
#736=DIRECTION('ref_axis',(0.,0.,1.));
#737=DIRECTION('center_axis',(-1.83697019872103E-16,1.,0.));
#738=DIRECTION('ref_axis',(-1.,0.,0.));
#739=DIRECTION('center_axis',(0.,1.,0.));
#740=DIRECTION('ref_axis',(-1.,0.,0.));
#741=DIRECTION('',(0.,-1.,0.));
#742=DIRECTION('',(0.,1.,0.));
#743=DIRECTION('',(0.,1.,0.));
#744=DIRECTION('center_axis',(0.,0.,1.));
#745=DIRECTION('ref_axis',(-1.,0.,0.));
#746=DIRECTION('center_axis',(0.,0.,1.));
#747=DIRECTION('ref_axis',(-1.,0.,0.));
#748=DIRECTION('',(0.,0.,1.));
#749=DIRECTION('center_axis',(0.,0.,1.));
#750=DIRECTION('ref_axis',(-1.,0.,0.));
#751=DIRECTION('',(0.,0.,1.));
#752=DIRECTION('center_axis',(0.,0.,1.));
#753=DIRECTION('ref_axis',(-1.,0.,0.));
#754=DIRECTION('center_axis',(0.,0.,-1.));
#755=DIRECTION('ref_axis',(-1.,0.,0.));
#756=DIRECTION('center_axis',(0.,0.,-1.));
#757=DIRECTION('ref_axis',(1.,0.,0.));
#758=DIRECTION('',(1.,0.,0.));
#759=DIRECTION('center_axis',(0.,-1.,0.));
#760=DIRECTION('ref_axis',(1.,0.,0.));
#761=DIRECTION('',(-1.,0.,0.));
#762=DIRECTION('',(0.,0.,1.));
#763=DIRECTION('',(-1.,0.,0.));
#764=DIRECTION('',(0.,0.,1.));
#765=DIRECTION('center_axis',(0.,0.,1.));
#766=DIRECTION('ref_axis',(1.,0.,0.));
#767=DIRECTION('center_axis',(0.,0.,-1.));
#768=DIRECTION('ref_axis',(1.,0.,0.));
#769=DIRECTION('',(0.,0.,1.));
#770=DIRECTION('center_axis',(0.,0.,1.));
#771=DIRECTION('ref_axis',(1.,0.,0.));
#772=DIRECTION('center_axis',(0.,-1.,0.));
#773=DIRECTION('ref_axis',(1.,0.,0.));
#774=DIRECTION('',(-1.,0.,0.));
#775=DIRECTION('',(1.,0.,0.));
#776=DIRECTION('',(-1.,0.,0.));
#777=DIRECTION('',(0.,0.,1.));
#778=DIRECTION('center_axis',(0.,0.,-1.));
#779=DIRECTION('ref_axis',(-1.,0.,0.));
#780=DIRECTION('center_axis',(7.93016446160826E-17,1.,0.));
#781=DIRECTION('ref_axis',(-1.,7.93016446160826E-17,0.));
#782=DIRECTION('',(-1.,7.93016446160826E-17,0.));
#783=DIRECTION('',(0.,0.,1.));
#784=DIRECTION('',(-1.,7.93016446160826E-17,0.));
#785=DIRECTION('',(0.,0.,1.));
#786=DIRECTION('center_axis',(0.973616310567801,0.228191322789328,0.));
#787=DIRECTION('ref_axis',(-0.228191322789328,0.973616310567801,0.));
#788=DIRECTION('',(-0.228191322789328,0.973616310567801,0.));
#789=DIRECTION('',(-0.228191322789328,0.973616310567801,0.));
#790=DIRECTION('',(0.,0.,1.));
#791=DIRECTION('center_axis',(-1.83697019872103E-16,1.,0.));
#792=DIRECTION('ref_axis',(-1.,-1.83697019872103E-16,0.));
#793=DIRECTION('',(-1.,-1.83697019872103E-16,0.));
#794=DIRECTION('',(-1.,-1.83697019872103E-16,0.));
#795=DIRECTION('',(0.,0.,1.));
#796=DIRECTION('center_axis',(-0.973616310567801,0.228191322789328,0.));
#797=DIRECTION('ref_axis',(-0.228191322789328,-0.973616310567801,0.));
#798=DIRECTION('',(-0.228191322789328,-0.973616310567801,0.));
#799=DIRECTION('',(-0.228191322789328,-0.973616310567801,0.));
#800=DIRECTION('',(0.,0.,1.));
#801=DIRECTION('center_axis',(5.55111512312578E-16,1.,0.));
#802=DIRECTION('ref_axis',(-1.,5.55111512312578E-16,0.));
#803=DIRECTION('',(-1.,5.55111512312578E-16,0.));
#804=DIRECTION('',(-1.,5.55111512312578E-16,0.));
#805=DIRECTION('',(0.,0.,1.));
#806=DIRECTION('center_axis',(1.,0.,0.));
#807=DIRECTION('ref_axis',(0.,1.,0.));
#808=DIRECTION('',(0.,-1.,0.));
#809=DIRECTION('',(0.,-1.,0.));
#810=DIRECTION('center_axis',(-1.,0.,0.));
#811=DIRECTION('ref_axis',(0.,-1.,0.));
#812=DIRECTION('',(0.,-1.,0.));
#813=DIRECTION('',(0.,-1.,0.));
#814=DIRECTION('center_axis',(0.,0.,1.));
#815=DIRECTION('ref_axis',(1.,0.,0.));
#816=DIRECTION('center_axis',(0.,0.,1.));
#817=DIRECTION('ref_axis',(1.,0.,0.));
#818=DIRECTION('center_axis',(-0.577350269189626,0.577350269189626,-0.577350269189626));
#819=DIRECTION('ref_axis',(-0.707106781186548,-0.707106781186548,0.));
#820=DIRECTION('center_axis',(0.,0.,1.));
#821=DIRECTION('ref_axis',(1.,0.,0.));
#822=DIRECTION('center_axis',(-2.22044604925031E-16,0.,-1.));
#823=DIRECTION('ref_axis',(-1.,0.,2.22044604925031E-16));
#824=DIRECTION('center_axis',(0.,0.,1.));
#825=DIRECTION('ref_axis',(1.,0.,0.));
#826=DIRECTION('center_axis',(0.,-1.,0.));
#827=DIRECTION('ref_axis',(-1.,0.,0.));
#828=DIRECTION('center_axis',(0.,0.,1.));
#829=DIRECTION('ref_axis',(1.,0.,0.));
#830=DIRECTION('center_axis',(-1.,0.,0.));
#831=DIRECTION('ref_axis',(0.,0.,1.));
#832=DIRECTION('center_axis',(0.,0.,1.));
#833=DIRECTION('ref_axis',(1.,0.,0.));
#834=DIRECTION('center_axis',(0.,0.,1.));
#835=DIRECTION('ref_axis',(1.,0.,0.));
#836=DIRECTION('center_axis',(0.,0.,1.));
#837=DIRECTION('ref_axis',(1.,0.,0.));
#838=DIRECTION('center_axis',(0.,0.,1.));
#839=DIRECTION('ref_axis',(1.,0.,0.));
#840=DIRECTION('center_axis',(0.,0.,1.));
#841=DIRECTION('ref_axis',(1.,0.,0.));
#842=DIRECTION('center_axis',(0.,0.,1.));
#843=DIRECTION('ref_axis',(1.,0.,0.));
#844=CARTESIAN_POINT('',(0.,0.,0.));
#845=CARTESIAN_POINT('Origin',(16.,-16.,6.));
#846=CARTESIAN_POINT('',(17.6,-16.,6.));
#847=CARTESIAN_POINT('Origin',(16.,-16.,6.));
#848=CARTESIAN_POINT('',(17.6,3.2,6.));
#849=CARTESIAN_POINT('',(17.6,-16.,6.));
#850=CARTESIAN_POINT('Origin',(16.,3.2,6.));
#851=CARTESIAN_POINT('Origin',(16.,-21.,6.));
#852=CARTESIAN_POINT('',(18.25,-21.,6.));
#853=CARTESIAN_POINT('Origin',(16.,-21.,6.));
#854=CARTESIAN_POINT('',(18.25,-16.,6.));
#855=CARTESIAN_POINT('',(18.25,-21.,6.));
#856=CARTESIAN_POINT('Origin',(16.,-16.,6.));
#857=CARTESIAN_POINT('Origin',(16.,-16.,6.));
#858=CARTESIAN_POINT('Origin',(16.,-16.,25.5));
#859=CARTESIAN_POINT('',(17.6,-16.,25.5));
#860=CARTESIAN_POINT('Origin',(16.,-16.,25.5));
#861=CARTESIAN_POINT('',(17.6,3.2,25.5));
#862=CARTESIAN_POINT('',(17.6,-16.,25.5));
#863=CARTESIAN_POINT('Origin',(16.,3.2,25.5));
#864=CARTESIAN_POINT('Origin',(16.,-21.,25.5));
#865=CARTESIAN_POINT('',(18.25,-21.,25.5));
#866=CARTESIAN_POINT('Origin',(16.,-21.,25.5));
#867=CARTESIAN_POINT('',(18.25,-16.,25.5));
#868=CARTESIAN_POINT('',(18.25,-21.,25.5));
#869=CARTESIAN_POINT('Origin',(16.,-16.,25.5));
#870=CARTESIAN_POINT('Origin',(16.,-16.,25.5));
#871=CARTESIAN_POINT('Origin',(-16.,-16.,25.5));
#872=CARTESIAN_POINT('',(-17.6,-16.,25.5));
#873=CARTESIAN_POINT('Origin',(-16.,-16.,25.5));
#874=CARTESIAN_POINT('',(-17.6,3.2,25.5));
#875=CARTESIAN_POINT('',(-17.6,-16.,25.5));
#876=CARTESIAN_POINT('Origin',(-16.,3.2,25.5));
#877=CARTESIAN_POINT('Origin',(-16.,-16.,6.));
#878=CARTESIAN_POINT('',(-17.6,-16.,6.));
#879=CARTESIAN_POINT('Origin',(-16.,-16.,6.));
#880=CARTESIAN_POINT('',(-17.6,3.2,6.));
#881=CARTESIAN_POINT('',(-17.6,-16.,6.));
#882=CARTESIAN_POINT('Origin',(-16.,3.2,6.));
#883=CARTESIAN_POINT('Origin',(-16.,-21.,25.5));
#884=CARTESIAN_POINT('',(-18.25,-21.,25.5));
#885=CARTESIAN_POINT('Origin',(-16.,-21.,25.5));
#886=CARTESIAN_POINT('',(-18.25,-16.,25.5));
#887=CARTESIAN_POINT('',(-18.25,-21.,25.5));
#888=CARTESIAN_POINT('Origin',(-16.,-16.,25.5));
#889=CARTESIAN_POINT('Origin',(-16.,-16.,25.5));
#890=CARTESIAN_POINT('Origin',(-16.,-21.,6.));
#891=CARTESIAN_POINT('',(-18.25,-21.,6.));
#892=CARTESIAN_POINT('Origin',(-16.,-21.,6.));
#893=CARTESIAN_POINT('',(-18.25,-16.,6.));
#894=CARTESIAN_POINT('',(-18.25,-21.,6.));
#895=CARTESIAN_POINT('Origin',(-16.,-16.,6.));
#896=CARTESIAN_POINT('Origin',(-16.,-16.,6.));
#897=CARTESIAN_POINT('Origin',(0.,2.15843998349721E-15,31.));
#898=CARTESIAN_POINT('',(3.2,-4.,31.));
#899=CARTESIAN_POINT('Origin',(1.11022302462516E-15,-4.,31.));
#900=CARTESIAN_POINT('',(3.2,2.74627044708794E-15,31.));
#901=CARTESIAN_POINT('',(3.2,3.04661840319734E-15,31.));
#902=CARTESIAN_POINT('Origin',(0.,2.15843998349721E-15,31.));
#903=CARTESIAN_POINT('Origin',(1.11022302462516E-15,-4.,31.));
#904=CARTESIAN_POINT('',(5.5,-4.,31.));
#905=CARTESIAN_POINT('Origin',(0.,-4.,31.));
#906=CARTESIAN_POINT('Origin',(0.,0.,31.));
#907=CARTESIAN_POINT('',(5.47722557505166,-9.54181515247725,31.5));
#908=CARTESIAN_POINT('',(5.5,-9.55272958299665,31.));
#909=CARTESIAN_POINT('Ctrl Pts',(5.47722557505166,-9.54181515247725,31.5));
#910=CARTESIAN_POINT('Ctrl Pts',(5.49255674128394,-9.54914373522401,31.3320554884344));
#911=CARTESIAN_POINT('Ctrl Pts',(5.5,-9.55272958299665,31.1649171531192));
#912=CARTESIAN_POINT('Ctrl Pts',(5.5,-9.55272958299665,31.));
#913=CARTESIAN_POINT('',(5.47722557505166,-7.03575995623106,31.5));
#914=CARTESIAN_POINT('',(5.47722557505166,0.,31.5));
#915=CARTESIAN_POINT('',(-5.47722557505166,-7.03575995623106,31.5));
#916=CARTESIAN_POINT('Ctrl Pts',(-5.47722557505166,-7.03575995623106,31.5));
#917=CARTESIAN_POINT('Ctrl Pts',(-5.42758273109653,-7.01628843084356,32.0438101090587));
#918=CARTESIAN_POINT('Ctrl Pts',(-5.29269532575752,-6.96291924979472,32.5970700955983));
#919=CARTESIAN_POINT('Ctrl Pts',(-4.79600574237294,-6.78423839265836,33.7901882099333));
#920=CARTESIAN_POINT('Ctrl Pts',(-4.37394774435241,-6.64309877025695,34.4042268486996));
#921=CARTESIAN_POINT('Ctrl Pts',(-3.40456405368097,-6.38286536433836,35.3736105393711));
#922=CARTESIAN_POINT('Ctrl Pts',(-2.79039422177887,-6.24598899039879,35.7959263475439));
#923=CARTESIAN_POINT('Ctrl Pts',(-1.43708028594051,-6.05336355392134,36.3592919803201));
#924=CARTESIAN_POINT('Ctrl Pts',(-0.69745546491006,-6.,36.5));
#925=CARTESIAN_POINT('Ctrl Pts',(0.69745546491006,-6.,36.5));
#926=CARTESIAN_POINT('Ctrl Pts',(1.43708028594051,-6.05336355392135,36.3592919803201));
#927=CARTESIAN_POINT('Ctrl Pts',(2.79039422177887,-6.24598899039879,35.7959263475439));
#928=CARTESIAN_POINT('Ctrl Pts',(3.40456405368097,-6.38286536433836,35.3736105393711));
#929=CARTESIAN_POINT('Ctrl Pts',(4.3739477443524,-6.64309877025695,34.4042268486996));
#930=CARTESIAN_POINT('Ctrl Pts',(4.79600574237294,-6.78423839265836,33.7901882099333));
#931=CARTESIAN_POINT('Ctrl Pts',(5.29269532575752,-6.96291924979472,32.5970700955983));
#932=CARTESIAN_POINT('Ctrl Pts',(5.42758273109653,-7.01628843084356,32.0438101090587));
#933=CARTESIAN_POINT('Ctrl Pts',(5.47722557505166,-7.03575995623106,31.5));
#934=CARTESIAN_POINT('',(-5.47722557505166,-9.54181515247725,31.5));
#935=CARTESIAN_POINT('',(-5.47722557505166,0.,31.5));
#936=CARTESIAN_POINT('Ctrl Pts',(5.5,-9.55272958299665,31.));
#937=CARTESIAN_POINT('Ctrl Pts',(5.5,-9.55272958299665,30.2986950487011));
#938=CARTESIAN_POINT('Ctrl Pts',(5.35793666057315,-9.48144473065171,29.5582249413232));
#939=CARTESIAN_POINT('Ctrl Pts',(4.79407413990735,-9.23558559821135,28.2066036681699));
#940=CARTESIAN_POINT('Ctrl Pts',(4.37263332479585,-9.06567598562259,27.5944587317438));
#941=CARTESIAN_POINT('Ctrl Pts',(3.40623346225483,-8.75480309195151,26.6280588692028));
#942=CARTESIAN_POINT('Ctrl Pts',(2.79383479681149,-8.59214050268719,26.2060979885172));
#943=CARTESIAN_POINT('Ctrl Pts',(1.44119205708632,-8.36340806497427,25.6418309150628));
#944=CARTESIAN_POINT('Ctrl Pts',(0.700301036365996,-8.3,25.5));
#945=CARTESIAN_POINT('Ctrl Pts',(-0.700301036365994,-8.3,25.5));
#946=CARTESIAN_POINT('Ctrl Pts',(-1.44119205708632,-8.36340806497427,25.6418309150628));
#947=CARTESIAN_POINT('Ctrl Pts',(-2.79383479681149,-8.59214050268719,26.2060979885172));
#948=CARTESIAN_POINT('Ctrl Pts',(-3.40623346225483,-8.75480309195151,26.6280588692028));
#949=CARTESIAN_POINT('Ctrl Pts',(-4.37263332479585,-9.06567598562259,27.5944587317438));
#950=CARTESIAN_POINT('Ctrl Pts',(-4.79407413990735,-9.23558559821135,28.2066036681699));
#951=CARTESIAN_POINT('Ctrl Pts',(-5.35793666057315,-9.48144473065171,29.5582249413233));
#952=CARTESIAN_POINT('Ctrl Pts',(-5.5,-9.55272958299665,30.2986950487011));
#953=CARTESIAN_POINT('Ctrl Pts',(-5.5,-9.55272958299665,31.));
#954=CARTESIAN_POINT('Ctrl Pts',(-5.5,-9.55272958299665,31.1649171598148));
#955=CARTESIAN_POINT('Ctrl Pts',(-5.49255674085394,-9.54914373501847,31.3320554931448));
#956=CARTESIAN_POINT('Ctrl Pts',(-5.47722557505166,-9.54181515247725,31.5));
#957=CARTESIAN_POINT('',(5.5,0.,31.));
#958=CARTESIAN_POINT('Origin',(0.,-21.,31.5));
#959=CARTESIAN_POINT('',(15.,-21.,31.5));
#960=CARTESIAN_POINT('Origin',(0.,-21.,31.5));
#961=CARTESIAN_POINT('',(15.,-21.,46.));
#962=CARTESIAN_POINT('',(15.,-21.,31.5));
#963=CARTESIAN_POINT('',(-15.,-21.,46.));
#964=CARTESIAN_POINT('Origin',(0.,-21.,46.));
#965=CARTESIAN_POINT('',(-15.,-21.,31.5));
#966=CARTESIAN_POINT('',(-15.,-21.,31.5));
#967=CARTESIAN_POINT('Origin',(0.,-21.,31.5));
#968=CARTESIAN_POINT('Origin',(0.,-12.5,31.5));
#969=CARTESIAN_POINT('',(12.7,-21.,31.5));
#970=CARTESIAN_POINT('Origin',(0.,-21.,31.5));
#971=CARTESIAN_POINT('',(19.5,-21.,31.5));
#972=CARTESIAN_POINT('Origin',(12.7,-21.,0.));
#973=CARTESIAN_POINT('',(19.5,-21.,0.));
#974=CARTESIAN_POINT('',(12.7,-21.,0.));
#975=CARTESIAN_POINT('',(19.5,-21.,0.));
#976=CARTESIAN_POINT('',(19.5,-21.,46.));
#977=CARTESIAN_POINT('',(19.5,-21.,0.));
#978=CARTESIAN_POINT('',(7.5,-21.,46.));
#979=CARTESIAN_POINT('',(12.7,-21.,0.));
#980=CARTESIAN_POINT('Origin',(0.,-21.,0.));
#981=CARTESIAN_POINT('',(-12.7,-21.,31.5));
#982=CARTESIAN_POINT('Origin',(0.,-21.,31.5));
#983=CARTESIAN_POINT('',(-12.7,-21.,0.));
#984=CARTESIAN_POINT('',(-12.7,-21.,0.));
#985=CARTESIAN_POINT('Origin',(0.,-21.,0.));
#986=CARTESIAN_POINT('Origin',(-19.5,-21.,0.));
#987=CARTESIAN_POINT('',(-19.5,-21.,0.));
#988=CARTESIAN_POINT('',(19.5,-21.,0.));
#989=CARTESIAN_POINT('',(19.5,-21.,31.5));
#990=CARTESIAN_POINT('',(-19.5,-21.,46.));
#991=CARTESIAN_POINT('',(-9.75,-21.,46.));
#992=CARTESIAN_POINT('',(-19.5,-21.,0.));
#993=CARTESIAN_POINT('Origin',(0.,-12.5,31.5));
#994=CARTESIAN_POINT('Origin',(-12.5,3.2,0.));
#995=CARTESIAN_POINT('',(-12.5,3.2,0.));
#996=CARTESIAN_POINT('',(-19.5,3.2,0.));
#997=CARTESIAN_POINT('',(-12.5,3.2,0.));
#998=CARTESIAN_POINT('',(-19.5,3.2,46.));
#999=CARTESIAN_POINT('',(-19.5,3.2,0.));
#1000=CARTESIAN_POINT('',(-12.5,3.2,46.));
#1001=CARTESIAN_POINT('',(-12.5,3.2,46.));
#1002=CARTESIAN_POINT('',(-12.5,3.2,0.));
#1003=CARTESIAN_POINT('Origin',(-11.75,0.,0.));
#1004=CARTESIAN_POINT('',(-11.75,0.,0.));
#1005=CARTESIAN_POINT('',(-11.75,0.,0.));
#1006=CARTESIAN_POINT('',(-11.75,0.,46.));
#1007=CARTESIAN_POINT('',(-11.75,0.,46.));
#1008=CARTESIAN_POINT('',(-11.75,0.,0.));
#1009=CARTESIAN_POINT('Origin',(11.75,4.31687996699442E-15,0.));
#1010=CARTESIAN_POINT('',(11.75,4.31687996699442E-15,0.));
#1011=CARTESIAN_POINT('',(11.75,4.31687996699442E-15,0.));
#1012=CARTESIAN_POINT('',(11.75,4.44089209850063E-15,46.));
#1013=CARTESIAN_POINT('',(11.75,4.31687996699442E-15,46.));
#1014=CARTESIAN_POINT('',(11.75,4.31687996699442E-15,0.));
#1015=CARTESIAN_POINT('Origin',(12.5,3.2,0.));
#1016=CARTESIAN_POINT('',(12.5,3.2,0.));
#1017=CARTESIAN_POINT('',(12.5,3.2,0.));
#1018=CARTESIAN_POINT('',(12.5,3.2,46.));
#1019=CARTESIAN_POINT('',(12.5,3.2,46.));
#1020=CARTESIAN_POINT('',(12.5,3.2,0.));
#1021=CARTESIAN_POINT('Origin',(19.5,3.2,0.));
#1022=CARTESIAN_POINT('',(19.5,3.2,0.));
#1023=CARTESIAN_POINT('',(19.5,3.2,0.));
#1024=CARTESIAN_POINT('',(19.5,3.2,46.));
#1025=CARTESIAN_POINT('',(19.5,3.2,46.));
#1026=CARTESIAN_POINT('',(19.5,3.2,0.));
#1027=CARTESIAN_POINT('Origin',(19.5,-4.,0.));
#1028=CARTESIAN_POINT('',(19.5,-4.,0.));
#1029=CARTESIAN_POINT('',(19.5,-16.75,46.));
#1030=CARTESIAN_POINT('Origin',(-19.5,3.2,0.));
#1031=CARTESIAN_POINT('',(-19.5,3.2,0.));
#1032=CARTESIAN_POINT('',(-19.5,3.2,46.));
#1033=CARTESIAN_POINT('Origin',(0.,-0.399999999999998,46.));
#1034=CARTESIAN_POINT('Origin',(0.,-0.399999999999998,0.));
#1035=CARTESIAN_POINT('Origin',(9.80776221726431,-9.80776221726431,9.80776221726431));
#1036=CARTESIAN_POINT('Origin',(-13.9055118110236,-10.,16.9875424688562));
#1037=CARTESIAN_POINT('',(0.,0.,0.));
#1038=CARTESIAN_POINT('Origin',(2.61331282407732E-14,0.,117.693146607172));
#1039=CARTESIAN_POINT('Origin',(-13.9055118110236,-10.,117.693146607172));
#1040=CARTESIAN_POINT('',(0.,0.,0.));
#1041=CARTESIAN_POINT('Origin',(0.,117.693146607172,0.));
#1042=CARTESIAN_POINT('Origin',(-13.9055118110236,-10.,117.693146607172));
#1043=CARTESIAN_POINT('',(0.,0.,0.));
#1044=CARTESIAN_POINT('Origin',(117.693146607172,0.,0.));
#1045=CARTESIAN_POINT('Origin',(-13.9055118110236,-10.,117.693146607172));
#1046=CARTESIAN_POINT('',(0.,0.,0.));
#1047=CARTESIAN_POINT('Origin',(0.,0.,0.));
#1048=CARTESIAN_POINT('Origin',(0.,0.,0.));
#1049=CARTESIAN_POINT('Origin',(0.,0.,0.));
#1050=CARTESIAN_POINT('Origin',(0.,0.,0.));
#1051=CARTESIAN_POINT('Origin',(0.,0.,0.));
#1052=UNCERTAINTY_MEASURE_WITH_UNIT(LENGTH_MEASURE(0.01),#1056,
'DISTANCE_ACCURACY_VALUE',
'Maximum model space distance between geometric entities at asserted c
onnectivities');
#1053=UNCERTAINTY_MEASURE_WITH_UNIT(LENGTH_MEASURE(0.01),#1056,
'DISTANCE_ACCURACY_VALUE',
'Maximum model space distance between geometric entities at asserted c
onnectivities');
#1054=(
GEOMETRIC_REPRESENTATION_CONTEXT(3)
GLOBAL_UNCERTAINTY_ASSIGNED_CONTEXT((#1052))
GLOBAL_UNIT_ASSIGNED_CONTEXT((#1056,#1058,#1059))
REPRESENTATION_CONTEXT('','3D')
);
#1055=(
GEOMETRIC_REPRESENTATION_CONTEXT(3)
GLOBAL_UNCERTAINTY_ASSIGNED_CONTEXT((#1053))
GLOBAL_UNIT_ASSIGNED_CONTEXT((#1056,#1058,#1059))
REPRESENTATION_CONTEXT('','3D')
);
#1056=(
LENGTH_UNIT()
NAMED_UNIT(*)
SI_UNIT(.MILLI.,.METRE.)
);
#1057=(
LENGTH_UNIT()
NAMED_UNIT(*)
SI_UNIT(.CENTI.,.METRE.)
);
#1058=(
NAMED_UNIT(*)
PLANE_ANGLE_UNIT()
SI_UNIT($,.RADIAN.)
);
#1059=(
NAMED_UNIT(*)
SI_UNIT($,.STERADIAN.)
SOLID_ANGLE_UNIT()
);
#1060=SHAPE_DEFINITION_REPRESENTATION(#1061,#1062);
#1061=PRODUCT_DEFINITION_SHAPE('',$,#1064);
#1062=SHAPE_REPRESENTATION('',(#593,#45),#1054);
#1063=PRODUCT_DEFINITION_CONTEXT('part definition',#1068,'design');
#1064=PRODUCT_DEFINITION('led_holder_01','led_holder_01',#1065,#1063);
#1065=PRODUCT_DEFINITION_FORMATION('',$,#1070);
#1066=PRODUCT_RELATED_PRODUCT_CATEGORY('led_holder_01','led_holder_01',
(#1070));
#1067=APPLICATION_PROTOCOL_DEFINITION('international standard',
'ap242_managed_model_based_3d_engineering',2011,#1068);
#1068=APPLICATION_CONTEXT('Managed model based 3d engineering');
#1069=PRODUCT_CONTEXT('part definition',#1068,'mechanical');
#1070=PRODUCT('led_holder_01','led_holder_01',$,(#1069));
#1071=PRESENTATION_STYLE_ASSIGNMENT((#1073));
#1072=PRESENTATION_STYLE_ASSIGNMENT((NULL_STYLE(.NULL.)));
#1073=SURFACE_STYLE_USAGE(.BOTH.,#1076);
#1074=SURFACE_STYLE_RENDERING_WITH_PROPERTIES($,#1080,(#1075));
#1075=SURFACE_STYLE_TRANSPARENT(0.);
#1076=SURFACE_SIDE_STYLE('',(#1077,#1074));
#1077=SURFACE_STYLE_FILL_AREA(#1078);
#1078=FILL_AREA_STYLE('',(#1079));
#1079=FILL_AREA_STYLE_COLOUR('',#1080);
#1080=COLOUR_RGB('',0.749019607843137,0.749019607843137,0.749019607843137);
ENDSEC;
END-ISO-10303-21;
