ISO-10303-21;
HEADER;
/* Generated by software containing ST-Developer
 * from STEP Tools, Inc. (www.steptools.com) 
 */

FILE_DESCRIPTION(
/* description */ ('',
'CAx-IF Rec.Pracs.---Representation and Presentation of Product Manufa
cturing Information (PMI)---4.0---2014-10-13'),
/* implementation_level */ '2;1');

FILE_NAME(
/* name */ 
'C:\\Users\\gisen\\Documents\\CAD\\inventor\\git\\sionyx_aurora_light_
attachment_cad\\led_holder_02.stp',
/* time_stamp */ '2025-10-28T21:32:43+09:00',
/* author */ ('gisen'),
/* organization */ (''),
/* preprocessor_version */ 'ST-DEVELOPER v18.1',
/* originating_system */ 'Autodesk Inventor 2022',
/* authorisation */ '');

FILE_SCHEMA (('AP242_MANAGED_MODEL_BASED_3D_ENGINEERING_MIM_LF { 1 0 10303 442 1 1 4 }'));
ENDSEC;

DATA;
#10=MECHANICAL_DESIGN_AND_DRAUGHTING_RELATIONSHIP('\X2\30A230A430BD30E1\X0\',
'',#25,#26);
#11=MECHANICAL_DESIGN_AND_DRAUGHTING_RELATIONSHIP('\X2\6B639762\X0\','',
#27,#26);
#12=MECHANICAL_DESIGN_AND_DRAUGHTING_RELATIONSHIP('\X2\4E0A\X0\','',#28,
#26);
#13=MECHANICAL_DESIGN_AND_DRAUGHTING_RELATIONSHIP('\X2\53F3\X0\','',#29,
#26);
#14=MAPPED_ITEM('',#19,#656);
#15=MAPPED_ITEM('',#20,#657);
#16=MAPPED_ITEM('',#21,#658);
#17=MAPPED_ITEM('',#22,#659);
#18=MAPPED_ITEM('',#23,#660);
#19=REPRESENTATION_MAP(#656,#24);
#20=REPRESENTATION_MAP(#657,#1031);
#21=REPRESENTATION_MAP(#658,#24);
#22=REPRESENTATION_MAP(#659,#24);
#23=REPRESENTATION_MAP(#660,#24);
#24=ADVANCED_BREP_SHAPE_REPRESENTATION('\X2\30A230A430BD30E1\X0\',(#45),
#1023);
#25=DRAUGHTING_MODEL('\X2\30A230A430BD30E1\X0\',(#14,#31),#1023);
#26=DRAUGHTING_MODEL('',(#15,#657),#1023);
#27=DRAUGHTING_MODEL('\X2\6B639762\X0\',(#16,#32),#1023);
#28=DRAUGHTING_MODEL('\X2\4E0A\X0\',(#17,#33),#1023);
#29=DRAUGHTING_MODEL('\X2\53F3\X0\',(#18,#34),#1023);
#30=MECHANICAL_DESIGN_GEOMETRIC_PRESENTATION_REPRESENTATION('',(#43),#1024);
#31=CAMERA_MODEL_D3('\X2\30A230A430BD30E1\X0\',#648,#35);
#32=CAMERA_MODEL_D3('\X2\6B639762\X0\',#650,#36);
#33=CAMERA_MODEL_D3('\X2\4E0A\X0\',#652,#37);
#34=CAMERA_MODEL_D3('\X2\53F3\X0\',#654,#38);
#35=VIEW_VOLUME(.PARALLEL.,#1006,16.9875424688562,0.,.F.,0.,.F.,.F.,#39);
#36=VIEW_VOLUME(.PARALLEL.,#1009,117.693146607172,0.,.F.,0.,.F.,.F.,#40);
#37=VIEW_VOLUME(.PARALLEL.,#1012,117.693146607172,0.,.F.,0.,.F.,.F.,#41);
#38=VIEW_VOLUME(.PARALLEL.,#1015,117.693146607172,0.,.F.,0.,.F.,.F.,#42);
#39=PLANAR_BOX('view window',27.8110236220472,20.,#649);
#40=PLANAR_BOX('view window',27.8110236220472,20.,#651);
#41=PLANAR_BOX('view window',27.8110236220472,20.,#653);
#42=PLANAR_BOX('view window',27.8110236220472,20.,#655);
#43=STYLED_ITEM('',(#1040),#45);
#44=STYLED_ITEM('',(#1041),#15);
#45=MANIFOLD_SOLID_BREP('\X2\30BD30EA30C330C9\X0\1',#566);
#46=FACE_BOUND('',#111,.T.);
#47=FACE_BOUND('',#112,.T.);
#48=FACE_BOUND('',#119,.T.);
#49=FACE_BOUND('',#120,.T.);
#50=FACE_BOUND('',#122,.T.);
#51=FACE_BOUND('',#123,.T.);
#52=FACE_BOUND('',#127,.T.);
#53=FACE_BOUND('',#128,.T.);
#54=FACE_BOUND('',#132,.T.);
#55=FACE_BOUND('',#135,.T.);
#56=FACE_BOUND('',#140,.T.);
#57=FACE_BOUND('',#143,.T.);
#58=ELLIPSE('',#597,3.15625,2.85);
#59=ELLIPSE('',#598,3.15625,2.85);
#60=ELLIPSE('',#621,3.15625,2.85);
#61=ELLIPSE('',#622,3.15625,2.85);
#62=PLANE('',#589);
#63=PLANE('',#590);
#64=PLANE('',#596);
#65=PLANE('',#599);
#66=PLANE('',#610);
#67=PLANE('',#613);
#68=PLANE('',#616);
#69=PLANE('',#620);
#70=PLANE('',#623);
#71=PLANE('',#627);
#72=PLANE('',#631);
#73=PLANE('',#637);
#74=PLANE('',#641);
#75=PLANE('',#647);
#76=FACE_OUTER_BOUND('',#106,.T.);
#77=FACE_OUTER_BOUND('',#107,.T.);
#78=FACE_OUTER_BOUND('',#108,.T.);
#79=FACE_OUTER_BOUND('',#109,.T.);
#80=FACE_OUTER_BOUND('',#110,.T.);
#81=FACE_OUTER_BOUND('',#113,.T.);
#82=FACE_OUTER_BOUND('',#114,.T.);
#83=FACE_OUTER_BOUND('',#115,.T.);
#84=FACE_OUTER_BOUND('',#116,.T.);
#85=FACE_OUTER_BOUND('',#117,.T.);
#86=FACE_OUTER_BOUND('',#118,.T.);
#87=FACE_OUTER_BOUND('',#121,.T.);
#88=FACE_OUTER_BOUND('',#124,.T.);
#89=FACE_OUTER_BOUND('',#125,.T.);
#90=FACE_OUTER_BOUND('',#126,.T.);
#91=FACE_OUTER_BOUND('',#129,.T.);
#92=FACE_OUTER_BOUND('',#130,.T.);
#93=FACE_OUTER_BOUND('',#131,.T.);
#94=FACE_OUTER_BOUND('',#133,.T.);
#95=FACE_OUTER_BOUND('',#134,.T.);
#96=FACE_OUTER_BOUND('',#136,.T.);
#97=FACE_OUTER_BOUND('',#137,.T.);
#98=FACE_OUTER_BOUND('',#138,.T.);
#99=FACE_OUTER_BOUND('',#139,.T.);
#100=FACE_OUTER_BOUND('',#141,.T.);
#101=FACE_OUTER_BOUND('',#142,.T.);
#102=FACE_OUTER_BOUND('',#144,.T.);
#103=FACE_OUTER_BOUND('',#145,.T.);
#104=FACE_OUTER_BOUND('',#146,.T.);
#105=FACE_OUTER_BOUND('',#147,.T.);
#106=EDGE_LOOP('',(#376,#377,#378,#379));
#107=EDGE_LOOP('',(#380,#381,#382,#383));
#108=EDGE_LOOP('',(#384,#385,#386,#387,#388,#389));
#109=EDGE_LOOP('',(#390,#391,#392,#393));
#110=EDGE_LOOP('',(#394,#395,#396,#397,#398,#399));
#111=EDGE_LOOP('',(#400));
#112=EDGE_LOOP('',(#401));
#113=EDGE_LOOP('',(#402,#403,#404,#405,#406,#407));
#114=EDGE_LOOP('',(#408,#409,#410,#411));
#115=EDGE_LOOP('',(#412,#413,#414,#415));
#116=EDGE_LOOP('',(#416,#417,#418,#419));
#117=EDGE_LOOP('',(#420,#421,#422,#423));
#118=EDGE_LOOP('',(#424,#425,#426,#427,#428,#429));
#119=EDGE_LOOP('',(#430));
#120=EDGE_LOOP('',(#431));
#121=EDGE_LOOP('',(#432,#433,#434,#435,#436,#437));
#122=EDGE_LOOP('',(#438));
#123=EDGE_LOOP('',(#439));
#124=EDGE_LOOP('',(#440,#441,#442,#443));
#125=EDGE_LOOP('',(#444,#445,#446,#447));
#126=EDGE_LOOP('',(#448,#449,#450,#451,#452,#453));
#127=EDGE_LOOP('',(#454));
#128=EDGE_LOOP('',(#455));
#129=EDGE_LOOP('',(#456,#457,#458,#459,#460,#461,#462,#463,#464,#465));
#130=EDGE_LOOP('',(#466,#467,#468,#469));
#131=EDGE_LOOP('',(#470));
#132=EDGE_LOOP('',(#471));
#133=EDGE_LOOP('',(#472,#473,#474,#475));
#134=EDGE_LOOP('',(#476));
#135=EDGE_LOOP('',(#477));
#136=EDGE_LOOP('',(#478,#479,#480,#481));
#137=EDGE_LOOP('',(#482,#483,#484,#485));
#138=EDGE_LOOP('',(#486,#487,#488,#489));
#139=EDGE_LOOP('',(#490));
#140=EDGE_LOOP('',(#491));
#141=EDGE_LOOP('',(#492,#493,#494,#495));
#142=EDGE_LOOP('',(#496));
#143=EDGE_LOOP('',(#497));
#144=EDGE_LOOP('',(#498,#499,#500,#501));
#145=EDGE_LOOP('',(#502,#503,#504,#505));
#146=EDGE_LOOP('',(#506,#507,#508,#509));
#147=EDGE_LOOP('',(#510,#511,#512,#513,#514,#515,#516,#517,#518,#519));
#148=LINE('',#859,#188);
#149=LINE('',#862,#189);
#150=LINE('',#865,#190);
#151=LINE('',#867,#191);
#152=LINE('',#868,#192);
#153=LINE('',#871,#193);
#154=LINE('',#876,#194);
#155=LINE('',#882,#195);
#156=LINE('',#885,#196);
#157=LINE('',#888,#197);
#158=LINE('',#890,#198);
#159=LINE('',#892,#199);
#160=LINE('',#894,#200);
#161=LINE('',#895,#201);
#162=LINE('',#902,#202);
#163=LINE('',#904,#203);
#164=LINE('',#910,#204);
#165=LINE('',#913,#205);
#166=LINE('',#917,#206);
#167=LINE('',#920,#207);
#168=LINE('',#924,#208);
#169=LINE('',#928,#209);
#170=LINE('',#930,#210);
#171=LINE('',#931,#211);
#172=LINE('',#938,#212);
#173=LINE('',#940,#213);
#174=LINE('',#942,#214);
#175=LINE('',#943,#215);
#176=LINE('',#949,#216);
#177=LINE('',#954,#217);
#178=LINE('',#957,#218);
#179=LINE('',#958,#219);
#180=LINE('',#968,#220);
#181=LINE('',#975,#221);
#182=LINE('',#980,#222);
#183=LINE('',#982,#223);
#184=LINE('',#986,#224);
#185=LINE('',#993,#225);
#186=LINE('',#998,#226);
#187=LINE('',#1000,#227);
#188=VECTOR('',#667,10.);
#189=VECTOR('',#670,10.);
#190=VECTOR('',#673,10.);
#191=VECTOR('',#674,10.);
#192=VECTOR('',#675,10.);
#193=VECTOR('',#678,10.);
#194=VECTOR('',#683,10.);
#195=VECTOR('',#688,10.);
#196=VECTOR('',#691,10.);
#197=VECTOR('',#694,10.);
#198=VECTOR('',#695,10.);
#199=VECTOR('',#696,10.);
#200=VECTOR('',#697,10.);
#201=VECTOR('',#698,10.);
#202=VECTOR('',#705,10.);
#203=VECTOR('',#706,10.);
#204=VECTOR('',#713,10.);
#205=VECTOR('',#716,10.);
#206=VECTOR('',#721,10.);
#207=VECTOR('',#724,10.);
#208=VECTOR('',#729,10.);
#209=VECTOR('',#734,10.);
#210=VECTOR('',#735,10.);
#211=VECTOR('',#736,10.);
#212=VECTOR('',#743,10.);
#213=VECTOR('',#744,10.);
#214=VECTOR('',#745,10.);
#215=VECTOR('',#746,10.);
#216=VECTOR('',#753,10.);
#217=VECTOR('',#758,10.);
#218=VECTOR('',#763,10.);
#219=VECTOR('',#764,10.);
#220=VECTOR('',#777,1.6);
#221=VECTOR('',#786,1.6);
#222=VECTOR('',#793,2.85);
#223=VECTOR('',#796,2.85);
#224=VECTOR('',#801,1.6);
#225=VECTOR('',#810,1.6);
#226=VECTOR('',#817,2.85);
#227=VECTOR('',#820,2.85);
#228=CIRCLE('',#587,1.);
#229=CIRCLE('',#588,1.);
#230=CIRCLE('',#591,1.);
#231=CIRCLE('',#592,15.);
#232=CIRCLE('',#594,1.);
#233=CIRCLE('',#595,1.);
#234=CIRCLE('',#600,15.);
#235=CIRCLE('',#601,1.);
#236=CIRCLE('',#603,1.);
#237=CIRCLE('',#605,15.);
#238=CIRCLE('',#607,1.);
#239=CIRCLE('',#609,15.);
#240=CIRCLE('',#611,1.6);
#241=CIRCLE('',#612,1.6);
#242=CIRCLE('',#614,1.6);
#243=CIRCLE('',#615,1.6);
#244=CIRCLE('',#618,14.7);
#245=CIRCLE('',#619,14.7);
#246=CIRCLE('',#624,12.7);
#247=CIRCLE('',#626,1.6);
#248=CIRCLE('',#628,2.85);
#249=CIRCLE('',#630,1.6);
#250=CIRCLE('',#632,2.85);
#251=CIRCLE('',#636,1.6);
#252=CIRCLE('',#638,2.85);
#253=CIRCLE('',#640,1.6);
#254=CIRCLE('',#642,2.85);
#255=CIRCLE('',#646,12.7);
#256=VERTEX_POINT('',#855);
#257=VERTEX_POINT('',#856);
#258=VERTEX_POINT('',#858);
#259=VERTEX_POINT('',#860);
#260=VERTEX_POINT('',#864);
#261=VERTEX_POINT('',#866);
#262=VERTEX_POINT('',#870);
#263=VERTEX_POINT('',#872);
#264=VERTEX_POINT('',#874);
#265=VERTEX_POINT('',#878);
#266=VERTEX_POINT('',#879);
#267=VERTEX_POINT('',#881);
#268=VERTEX_POINT('',#883);
#269=VERTEX_POINT('',#887);
#270=VERTEX_POINT('',#889);
#271=VERTEX_POINT('',#891);
#272=VERTEX_POINT('',#893);
#273=VERTEX_POINT('',#896);
#274=VERTEX_POINT('',#898);
#275=VERTEX_POINT('',#901);
#276=VERTEX_POINT('',#903);
#277=VERTEX_POINT('',#905);
#278=VERTEX_POINT('',#909);
#279=VERTEX_POINT('',#911);
#280=VERTEX_POINT('',#915);
#281=VERTEX_POINT('',#919);
#282=VERTEX_POINT('',#923);
#283=VERTEX_POINT('',#927);
#284=VERTEX_POINT('',#929);
#285=VERTEX_POINT('',#932);
#286=VERTEX_POINT('',#934);
#287=VERTEX_POINT('',#937);
#288=VERTEX_POINT('',#939);
#289=VERTEX_POINT('',#941);
#290=VERTEX_POINT('',#944);
#291=VERTEX_POINT('',#946);
#292=VERTEX_POINT('',#951);
#293=VERTEX_POINT('',#953);
#294=VERTEX_POINT('',#959);
#295=VERTEX_POINT('',#961);
#296=VERTEX_POINT('',#966);
#297=VERTEX_POINT('',#970);
#298=VERTEX_POINT('',#973);
#299=VERTEX_POINT('',#977);
#300=VERTEX_POINT('',#984);
#301=VERTEX_POINT('',#988);
#302=VERTEX_POINT('',#991);
#303=VERTEX_POINT('',#995);
#304=EDGE_CURVE('',#256,#257,#228,.T.);
#305=EDGE_CURVE('',#257,#258,#148,.T.);
#306=EDGE_CURVE('',#258,#259,#229,.T.);
#307=EDGE_CURVE('',#259,#256,#149,.T.);
#308=EDGE_CURVE('',#257,#260,#150,.T.);
#309=EDGE_CURVE('',#260,#261,#151,.T.);
#310=EDGE_CURVE('',#258,#261,#152,.T.);
#311=EDGE_CURVE('',#256,#262,#153,.T.);
#312=EDGE_CURVE('',#263,#262,#230,.T.);
#313=EDGE_CURVE('',#264,#263,#231,.T.);
#314=EDGE_CURVE('',#264,#260,#154,.T.);
#315=EDGE_CURVE('',#265,#266,#232,.T.);
#316=EDGE_CURVE('',#266,#267,#155,.T.);
#317=EDGE_CURVE('',#267,#268,#233,.T.);
#318=EDGE_CURVE('',#268,#265,#156,.T.);
#319=EDGE_CURVE('',#269,#268,#157,.T.);
#320=EDGE_CURVE('',#270,#269,#158,.T.);
#321=EDGE_CURVE('',#271,#270,#159,.T.);
#322=EDGE_CURVE('',#272,#271,#160,.T.);
#323=EDGE_CURVE('',#265,#272,#161,.T.);
#324=EDGE_CURVE('',#273,#273,#58,.T.);
#325=EDGE_CURVE('',#274,#274,#59,.T.);
#326=EDGE_CURVE('',#267,#275,#162,.T.);
#327=EDGE_CURVE('',#275,#276,#163,.T.);
#328=EDGE_CURVE('',#277,#276,#234,.T.);
#329=EDGE_CURVE('',#269,#277,#235,.T.);
#330=EDGE_CURVE('',#262,#278,#164,.T.);
#331=EDGE_CURVE('',#278,#279,#236,.F.);
#332=EDGE_CURVE('',#279,#263,#165,.T.);
#333=EDGE_CURVE('',#280,#279,#237,.T.);
#334=EDGE_CURVE('',#280,#264,#166,.T.);
#335=EDGE_CURVE('',#277,#281,#167,.T.);
#336=EDGE_CURVE('',#281,#270,#238,.F.);
#337=EDGE_CURVE('',#276,#282,#168,.T.);
#338=EDGE_CURVE('',#281,#282,#239,.T.);
#339=EDGE_CURVE('',#283,#280,#169,.T.);
#340=EDGE_CURVE('',#284,#283,#170,.T.);
#341=EDGE_CURVE('',#261,#284,#171,.T.);
#342=EDGE_CURVE('',#285,#285,#240,.T.);
#343=EDGE_CURVE('',#286,#286,#241,.T.);
#344=EDGE_CURVE('',#282,#287,#172,.T.);
#345=EDGE_CURVE('',#288,#275,#173,.T.);
#346=EDGE_CURVE('',#289,#288,#174,.T.);
#347=EDGE_CURVE('',#287,#289,#175,.T.);
#348=EDGE_CURVE('',#290,#290,#242,.T.);
#349=EDGE_CURVE('',#291,#291,#243,.T.);
#350=EDGE_CURVE('',#266,#288,#176,.T.);
#351=EDGE_CURVE('',#292,#271,#244,.T.);
#352=EDGE_CURVE('',#293,#292,#177,.T.);
#353=EDGE_CURVE('',#272,#293,#245,.T.);
#354=EDGE_CURVE('',#293,#259,#178,.T.);
#355=EDGE_CURVE('',#278,#292,#179,.T.);
#356=EDGE_CURVE('',#294,#294,#60,.T.);
#357=EDGE_CURVE('',#295,#295,#61,.T.);
#358=EDGE_CURVE('',#287,#283,#246,.T.);
#359=EDGE_CURVE('',#296,#296,#247,.T.);
#360=EDGE_CURVE('',#296,#286,#180,.T.);
#361=EDGE_CURVE('',#297,#297,#248,.T.);
#362=EDGE_CURVE('',#298,#298,#249,.T.);
#363=EDGE_CURVE('',#298,#285,#181,.T.);
#364=EDGE_CURVE('',#299,#299,#250,.T.);
#365=EDGE_CURVE('',#299,#294,#182,.T.);
#366=EDGE_CURVE('',#297,#295,#183,.T.);
#367=EDGE_CURVE('',#300,#300,#251,.T.);
#368=EDGE_CURVE('',#300,#290,#184,.T.);
#369=EDGE_CURVE('',#301,#301,#252,.T.);
#370=EDGE_CURVE('',#302,#302,#253,.T.);
#371=EDGE_CURVE('',#302,#291,#185,.T.);
#372=EDGE_CURVE('',#303,#303,#254,.T.);
#373=EDGE_CURVE('',#303,#273,#186,.T.);
#374=EDGE_CURVE('',#301,#274,#187,.T.);
#375=EDGE_CURVE('',#284,#289,#255,.T.);
#376=ORIENTED_EDGE('',*,*,#304,.T.);
#377=ORIENTED_EDGE('',*,*,#305,.T.);
#378=ORIENTED_EDGE('',*,*,#306,.T.);
#379=ORIENTED_EDGE('',*,*,#307,.T.);
#380=ORIENTED_EDGE('',*,*,#305,.F.);
#381=ORIENTED_EDGE('',*,*,#308,.T.);
#382=ORIENTED_EDGE('',*,*,#309,.T.);
#383=ORIENTED_EDGE('',*,*,#310,.F.);
#384=ORIENTED_EDGE('',*,*,#304,.F.);
#385=ORIENTED_EDGE('',*,*,#311,.T.);
#386=ORIENTED_EDGE('',*,*,#312,.F.);
#387=ORIENTED_EDGE('',*,*,#313,.F.);
#388=ORIENTED_EDGE('',*,*,#314,.T.);
#389=ORIENTED_EDGE('',*,*,#308,.F.);
#390=ORIENTED_EDGE('',*,*,#315,.T.);
#391=ORIENTED_EDGE('',*,*,#316,.T.);
#392=ORIENTED_EDGE('',*,*,#317,.T.);
#393=ORIENTED_EDGE('',*,*,#318,.T.);
#394=ORIENTED_EDGE('',*,*,#318,.F.);
#395=ORIENTED_EDGE('',*,*,#319,.F.);
#396=ORIENTED_EDGE('',*,*,#320,.F.);
#397=ORIENTED_EDGE('',*,*,#321,.F.);
#398=ORIENTED_EDGE('',*,*,#322,.F.);
#399=ORIENTED_EDGE('',*,*,#323,.F.);
#400=ORIENTED_EDGE('',*,*,#324,.F.);
#401=ORIENTED_EDGE('',*,*,#325,.F.);
#402=ORIENTED_EDGE('',*,*,#317,.F.);
#403=ORIENTED_EDGE('',*,*,#326,.T.);
#404=ORIENTED_EDGE('',*,*,#327,.T.);
#405=ORIENTED_EDGE('',*,*,#328,.F.);
#406=ORIENTED_EDGE('',*,*,#329,.F.);
#407=ORIENTED_EDGE('',*,*,#319,.T.);
#408=ORIENTED_EDGE('',*,*,#312,.T.);
#409=ORIENTED_EDGE('',*,*,#330,.T.);
#410=ORIENTED_EDGE('',*,*,#331,.T.);
#411=ORIENTED_EDGE('',*,*,#332,.T.);
#412=ORIENTED_EDGE('',*,*,#332,.F.);
#413=ORIENTED_EDGE('',*,*,#333,.F.);
#414=ORIENTED_EDGE('',*,*,#334,.T.);
#415=ORIENTED_EDGE('',*,*,#313,.T.);
#416=ORIENTED_EDGE('',*,*,#329,.T.);
#417=ORIENTED_EDGE('',*,*,#335,.T.);
#418=ORIENTED_EDGE('',*,*,#336,.T.);
#419=ORIENTED_EDGE('',*,*,#320,.T.);
#420=ORIENTED_EDGE('',*,*,#335,.F.);
#421=ORIENTED_EDGE('',*,*,#328,.T.);
#422=ORIENTED_EDGE('',*,*,#337,.T.);
#423=ORIENTED_EDGE('',*,*,#338,.F.);
#424=ORIENTED_EDGE('',*,*,#309,.F.);
#425=ORIENTED_EDGE('',*,*,#314,.F.);
#426=ORIENTED_EDGE('',*,*,#334,.F.);
#427=ORIENTED_EDGE('',*,*,#339,.F.);
#428=ORIENTED_EDGE('',*,*,#340,.F.);
#429=ORIENTED_EDGE('',*,*,#341,.F.);
#430=ORIENTED_EDGE('',*,*,#342,.F.);
#431=ORIENTED_EDGE('',*,*,#343,.F.);
#432=ORIENTED_EDGE('',*,*,#344,.F.);
#433=ORIENTED_EDGE('',*,*,#337,.F.);
#434=ORIENTED_EDGE('',*,*,#327,.F.);
#435=ORIENTED_EDGE('',*,*,#345,.F.);
#436=ORIENTED_EDGE('',*,*,#346,.F.);
#437=ORIENTED_EDGE('',*,*,#347,.F.);
#438=ORIENTED_EDGE('',*,*,#348,.F.);
#439=ORIENTED_EDGE('',*,*,#349,.F.);
#440=ORIENTED_EDGE('',*,*,#316,.F.);
#441=ORIENTED_EDGE('',*,*,#350,.T.);
#442=ORIENTED_EDGE('',*,*,#345,.T.);
#443=ORIENTED_EDGE('',*,*,#326,.F.);
#444=ORIENTED_EDGE('',*,*,#351,.F.);
#445=ORIENTED_EDGE('',*,*,#352,.F.);
#446=ORIENTED_EDGE('',*,*,#353,.F.);
#447=ORIENTED_EDGE('',*,*,#322,.T.);
#448=ORIENTED_EDGE('',*,*,#307,.F.);
#449=ORIENTED_EDGE('',*,*,#354,.F.);
#450=ORIENTED_EDGE('',*,*,#352,.T.);
#451=ORIENTED_EDGE('',*,*,#355,.F.);
#452=ORIENTED_EDGE('',*,*,#330,.F.);
#453=ORIENTED_EDGE('',*,*,#311,.F.);
#454=ORIENTED_EDGE('',*,*,#356,.F.);
#455=ORIENTED_EDGE('',*,*,#357,.F.);
#456=ORIENTED_EDGE('',*,*,#344,.T.);
#457=ORIENTED_EDGE('',*,*,#358,.T.);
#458=ORIENTED_EDGE('',*,*,#339,.T.);
#459=ORIENTED_EDGE('',*,*,#333,.T.);
#460=ORIENTED_EDGE('',*,*,#331,.F.);
#461=ORIENTED_EDGE('',*,*,#355,.T.);
#462=ORIENTED_EDGE('',*,*,#351,.T.);
#463=ORIENTED_EDGE('',*,*,#321,.T.);
#464=ORIENTED_EDGE('',*,*,#336,.F.);
#465=ORIENTED_EDGE('',*,*,#338,.T.);
#466=ORIENTED_EDGE('',*,*,#359,.T.);
#467=ORIENTED_EDGE('',*,*,#360,.T.);
#468=ORIENTED_EDGE('',*,*,#343,.T.);
#469=ORIENTED_EDGE('',*,*,#360,.F.);
#470=ORIENTED_EDGE('',*,*,#361,.F.);
#471=ORIENTED_EDGE('',*,*,#359,.F.);
#472=ORIENTED_EDGE('',*,*,#362,.T.);
#473=ORIENTED_EDGE('',*,*,#363,.T.);
#474=ORIENTED_EDGE('',*,*,#342,.T.);
#475=ORIENTED_EDGE('',*,*,#363,.F.);
#476=ORIENTED_EDGE('',*,*,#364,.F.);
#477=ORIENTED_EDGE('',*,*,#362,.F.);
#478=ORIENTED_EDGE('',*,*,#364,.T.);
#479=ORIENTED_EDGE('',*,*,#365,.T.);
#480=ORIENTED_EDGE('',*,*,#356,.T.);
#481=ORIENTED_EDGE('',*,*,#365,.F.);
#482=ORIENTED_EDGE('',*,*,#361,.T.);
#483=ORIENTED_EDGE('',*,*,#366,.T.);
#484=ORIENTED_EDGE('',*,*,#357,.T.);
#485=ORIENTED_EDGE('',*,*,#366,.F.);
#486=ORIENTED_EDGE('',*,*,#367,.F.);
#487=ORIENTED_EDGE('',*,*,#368,.T.);
#488=ORIENTED_EDGE('',*,*,#348,.T.);
#489=ORIENTED_EDGE('',*,*,#368,.F.);
#490=ORIENTED_EDGE('',*,*,#369,.F.);
#491=ORIENTED_EDGE('',*,*,#367,.T.);
#492=ORIENTED_EDGE('',*,*,#370,.F.);
#493=ORIENTED_EDGE('',*,*,#371,.T.);
#494=ORIENTED_EDGE('',*,*,#349,.T.);
#495=ORIENTED_EDGE('',*,*,#371,.F.);
#496=ORIENTED_EDGE('',*,*,#372,.F.);
#497=ORIENTED_EDGE('',*,*,#370,.T.);
#498=ORIENTED_EDGE('',*,*,#372,.T.);
#499=ORIENTED_EDGE('',*,*,#373,.T.);
#500=ORIENTED_EDGE('',*,*,#324,.T.);
#501=ORIENTED_EDGE('',*,*,#373,.F.);
#502=ORIENTED_EDGE('',*,*,#369,.T.);
#503=ORIENTED_EDGE('',*,*,#374,.T.);
#504=ORIENTED_EDGE('',*,*,#325,.T.);
#505=ORIENTED_EDGE('',*,*,#374,.F.);
#506=ORIENTED_EDGE('',*,*,#347,.T.);
#507=ORIENTED_EDGE('',*,*,#375,.F.);
#508=ORIENTED_EDGE('',*,*,#340,.T.);
#509=ORIENTED_EDGE('',*,*,#358,.F.);
#510=ORIENTED_EDGE('',*,*,#306,.F.);
#511=ORIENTED_EDGE('',*,*,#310,.T.);
#512=ORIENTED_EDGE('',*,*,#341,.T.);
#513=ORIENTED_EDGE('',*,*,#375,.T.);
#514=ORIENTED_EDGE('',*,*,#346,.T.);
#515=ORIENTED_EDGE('',*,*,#350,.F.);
#516=ORIENTED_EDGE('',*,*,#315,.F.);
#517=ORIENTED_EDGE('',*,*,#323,.T.);
#518=ORIENTED_EDGE('',*,*,#353,.T.);
#519=ORIENTED_EDGE('',*,*,#354,.T.);
#520=CYLINDRICAL_SURFACE('',#586,1.);
#521=CYLINDRICAL_SURFACE('',#593,1.);
#522=CYLINDRICAL_SURFACE('',#602,1.);
#523=CYLINDRICAL_SURFACE('',#604,15.);
#524=CYLINDRICAL_SURFACE('',#606,1.);
#525=CYLINDRICAL_SURFACE('',#608,15.);
#526=CYLINDRICAL_SURFACE('',#617,14.7);
#527=CYLINDRICAL_SURFACE('',#625,1.6);
#528=CYLINDRICAL_SURFACE('',#629,1.6);
#529=CYLINDRICAL_SURFACE('',#633,2.85);
#530=CYLINDRICAL_SURFACE('',#634,2.85);
#531=CYLINDRICAL_SURFACE('',#635,1.6);
#532=CYLINDRICAL_SURFACE('',#639,1.6);
#533=CYLINDRICAL_SURFACE('',#643,2.85);
#534=CYLINDRICAL_SURFACE('',#644,2.85);
#535=CYLINDRICAL_SURFACE('',#645,12.7);
#536=ADVANCED_FACE('',(#76),#520,.T.);
#537=ADVANCED_FACE('',(#77),#62,.T.);
#538=ADVANCED_FACE('',(#78),#63,.T.);
#539=ADVANCED_FACE('',(#79),#521,.T.);
#540=ADVANCED_FACE('',(#80,#46,#47),#64,.F.);
#541=ADVANCED_FACE('',(#81),#65,.T.);
#542=ADVANCED_FACE('',(#82),#522,.T.);
#543=ADVANCED_FACE('',(#83),#523,.F.);
#544=ADVANCED_FACE('',(#84),#524,.T.);
#545=ADVANCED_FACE('',(#85),#525,.F.);
#546=ADVANCED_FACE('',(#86,#48,#49),#66,.F.);
#547=ADVANCED_FACE('',(#87,#50,#51),#67,.F.);
#548=ADVANCED_FACE('',(#88),#68,.T.);
#549=ADVANCED_FACE('',(#89),#526,.T.);
#550=ADVANCED_FACE('',(#90,#52,#53),#69,.F.);
#551=ADVANCED_FACE('',(#91),#70,.F.);
#552=ADVANCED_FACE('',(#92),#527,.F.);
#553=ADVANCED_FACE('',(#93,#54),#71,.T.);
#554=ADVANCED_FACE('',(#94),#528,.F.);
#555=ADVANCED_FACE('',(#95,#55),#72,.T.);
#556=ADVANCED_FACE('',(#96),#529,.F.);
#557=ADVANCED_FACE('',(#97),#530,.F.);
#558=ADVANCED_FACE('',(#98),#531,.F.);
#559=ADVANCED_FACE('',(#99,#56),#73,.F.);
#560=ADVANCED_FACE('',(#100),#532,.F.);
#561=ADVANCED_FACE('',(#101,#57),#74,.F.);
#562=ADVANCED_FACE('',(#102),#533,.F.);
#563=ADVANCED_FACE('',(#103),#534,.F.);
#564=ADVANCED_FACE('',(#104),#535,.F.);
#565=ADVANCED_FACE('',(#105),#75,.F.);
#566=CLOSED_SHELL('',(#536,#537,#538,#539,#540,#541,#542,#543,#544,#545,
#546,#547,#548,#549,#550,#551,#552,#553,#554,#555,#556,#557,#558,#559,#560,
#561,#562,#563,#564,#565));
#567=DERIVED_UNIT_ELEMENT(#569,1.);
#568=DERIVED_UNIT_ELEMENT(#1026,-3.);
#569=(
MASS_UNIT()
NAMED_UNIT(*)
SI_UNIT($,.GRAM.)
);
#570=DERIVED_UNIT((#567,#568));
#571=MEASURE_REPRESENTATION_ITEM('density measure',
POSITIVE_RATIO_MEASURE(1.),#570);
#572=PROPERTY_DEFINITION_REPRESENTATION(#577,#574);
#573=PROPERTY_DEFINITION_REPRESENTATION(#578,#575);
#574=REPRESENTATION('material name',(#576),#1023);
#575=REPRESENTATION('density',(#571),#1023);
#576=DESCRIPTIVE_REPRESENTATION_ITEM('\X2\4E00822C\X0\','\X2\4E00822C\X0\');
#577=PROPERTY_DEFINITION('material property','material name',#1033);
#578=PROPERTY_DEFINITION('material property','density of part',#1033);
#579=DATE_TIME_ROLE('creation_date');
#580=APPLIED_DATE_AND_TIME_ASSIGNMENT(#581,#579,(#1033));
#581=DATE_AND_TIME(#582,#583);
#582=CALENDAR_DATE(2025,28,10);
#583=LOCAL_TIME(0,0,0.,#584);
#584=COORDINATED_UNIVERSAL_TIME_OFFSET(0,0,.BEHIND.);
#585=AXIS2_PLACEMENT_3D('placement',#853,#661,#662);
#586=AXIS2_PLACEMENT_3D('',#854,#663,#664);
#587=AXIS2_PLACEMENT_3D('',#857,#665,#666);
#588=AXIS2_PLACEMENT_3D('',#861,#668,#669);
#589=AXIS2_PLACEMENT_3D('',#863,#671,#672);
#590=AXIS2_PLACEMENT_3D('',#869,#676,#677);
#591=AXIS2_PLACEMENT_3D('',#873,#679,#680);
#592=AXIS2_PLACEMENT_3D('',#875,#681,#682);
#593=AXIS2_PLACEMENT_3D('',#877,#684,#685);
#594=AXIS2_PLACEMENT_3D('',#880,#686,#687);
#595=AXIS2_PLACEMENT_3D('',#884,#689,#690);
#596=AXIS2_PLACEMENT_3D('',#886,#692,#693);
#597=AXIS2_PLACEMENT_3D('',#897,#699,#700);
#598=AXIS2_PLACEMENT_3D('',#899,#701,#702);
#599=AXIS2_PLACEMENT_3D('',#900,#703,#704);
#600=AXIS2_PLACEMENT_3D('',#906,#707,#708);
#601=AXIS2_PLACEMENT_3D('',#907,#709,#710);
#602=AXIS2_PLACEMENT_3D('',#908,#711,#712);
#603=AXIS2_PLACEMENT_3D('',#912,#714,#715);
#604=AXIS2_PLACEMENT_3D('',#914,#717,#718);
#605=AXIS2_PLACEMENT_3D('',#916,#719,#720);
#606=AXIS2_PLACEMENT_3D('',#918,#722,#723);
#607=AXIS2_PLACEMENT_3D('',#921,#725,#726);
#608=AXIS2_PLACEMENT_3D('',#922,#727,#728);
#609=AXIS2_PLACEMENT_3D('',#925,#730,#731);
#610=AXIS2_PLACEMENT_3D('',#926,#732,#733);
#611=AXIS2_PLACEMENT_3D('',#933,#737,#738);
#612=AXIS2_PLACEMENT_3D('',#935,#739,#740);
#613=AXIS2_PLACEMENT_3D('',#936,#741,#742);
#614=AXIS2_PLACEMENT_3D('',#945,#747,#748);
#615=AXIS2_PLACEMENT_3D('',#947,#749,#750);
#616=AXIS2_PLACEMENT_3D('',#948,#751,#752);
#617=AXIS2_PLACEMENT_3D('',#950,#754,#755);
#618=AXIS2_PLACEMENT_3D('',#952,#756,#757);
#619=AXIS2_PLACEMENT_3D('',#955,#759,#760);
#620=AXIS2_PLACEMENT_3D('',#956,#761,#762);
#621=AXIS2_PLACEMENT_3D('',#960,#765,#766);
#622=AXIS2_PLACEMENT_3D('',#962,#767,#768);
#623=AXIS2_PLACEMENT_3D('',#963,#769,#770);
#624=AXIS2_PLACEMENT_3D('',#964,#771,#772);
#625=AXIS2_PLACEMENT_3D('',#965,#773,#774);
#626=AXIS2_PLACEMENT_3D('',#967,#775,#776);
#627=AXIS2_PLACEMENT_3D('',#969,#778,#779);
#628=AXIS2_PLACEMENT_3D('',#971,#780,#781);
#629=AXIS2_PLACEMENT_3D('',#972,#782,#783);
#630=AXIS2_PLACEMENT_3D('',#974,#784,#785);
#631=AXIS2_PLACEMENT_3D('',#976,#787,#788);
#632=AXIS2_PLACEMENT_3D('',#978,#789,#790);
#633=AXIS2_PLACEMENT_3D('',#979,#791,#792);
#634=AXIS2_PLACEMENT_3D('',#981,#794,#795);
#635=AXIS2_PLACEMENT_3D('',#983,#797,#798);
#636=AXIS2_PLACEMENT_3D('',#985,#799,#800);
#637=AXIS2_PLACEMENT_3D('',#987,#802,#803);
#638=AXIS2_PLACEMENT_3D('',#989,#804,#805);
#639=AXIS2_PLACEMENT_3D('',#990,#806,#807);
#640=AXIS2_PLACEMENT_3D('',#992,#808,#809);
#641=AXIS2_PLACEMENT_3D('',#994,#811,#812);
#642=AXIS2_PLACEMENT_3D('',#996,#813,#814);
#643=AXIS2_PLACEMENT_3D('',#997,#815,#816);
#644=AXIS2_PLACEMENT_3D('',#999,#818,#819);
#645=AXIS2_PLACEMENT_3D('',#1001,#821,#822);
#646=AXIS2_PLACEMENT_3D('',#1002,#823,#824);
#647=AXIS2_PLACEMENT_3D('',#1003,#825,#826);
#648=AXIS2_PLACEMENT_3D('view reference',#1004,#827,#828);
#649=AXIS2_PLACEMENT_3D('view window',#1005,#829,#830);
#650=AXIS2_PLACEMENT_3D('view reference',#1007,#831,#832);
#651=AXIS2_PLACEMENT_3D('view window',#1008,#833,#834);
#652=AXIS2_PLACEMENT_3D('view reference',#1010,#835,#836);
#653=AXIS2_PLACEMENT_3D('view window',#1011,#837,#838);
#654=AXIS2_PLACEMENT_3D('view reference',#1013,#839,#840);
#655=AXIS2_PLACEMENT_3D('view window',#1014,#841,#842);
#656=AXIS2_PLACEMENT_3D('',#1016,#843,#844);
#657=AXIS2_PLACEMENT_3D('',#1017,#845,#846);
#658=AXIS2_PLACEMENT_3D('',#1018,#847,#848);
#659=AXIS2_PLACEMENT_3D('',#1019,#849,#850);
#660=AXIS2_PLACEMENT_3D('',#1020,#851,#852);
#661=DIRECTION('axis',(0.,0.,1.));
#662=DIRECTION('refdir',(1.,0.,0.));
#663=DIRECTION('center_axis',(0.,0.,1.));
#664=DIRECTION('ref_axis',(0.845488903030971,0.533992991387982,0.));
#665=DIRECTION('center_axis',(0.,0.,-1.));
#666=DIRECTION('ref_axis',(0.845488903030971,0.533992991387982,0.));
#667=DIRECTION('',(0.,0.,-1.));
#668=DIRECTION('center_axis',(0.,0.,1.));
#669=DIRECTION('ref_axis',(0.845488903030971,0.533992991387982,0.));
#670=DIRECTION('',(0.,0.,1.));
#671=DIRECTION('center_axis',(1.,0.,0.));
#672=DIRECTION('ref_axis',(0.,1.,0.));
#673=DIRECTION('',(0.,-1.,0.));
#674=DIRECTION('',(0.,0.,-1.));
#675=DIRECTION('',(0.,-1.,0.));
#676=DIRECTION('center_axis',(0.,0.,1.));
#677=DIRECTION('ref_axis',(1.,0.,0.));
#678=DIRECTION('',(-0.902970297029703,0.429702970297029,0.));
#679=DIRECTION('center_axis',(0.,0.,-1.));
#680=DIRECTION('ref_axis',(-0.754713486071794,0.656054535798176,0.));
#681=DIRECTION('center_axis',(0.,0.,1.));
#682=DIRECTION('ref_axis',(-1.,0.,0.));
#683=DIRECTION('',(1.,0.,0.));
#684=DIRECTION('center_axis',(0.,0.,-1.));
#685=DIRECTION('ref_axis',(-0.845488903030971,0.533992991387982,0.));
#686=DIRECTION('center_axis',(0.,0.,1.));
#687=DIRECTION('ref_axis',(-0.845488903030971,0.533992991387982,0.));
#688=DIRECTION('',(0.,0.,1.));
#689=DIRECTION('center_axis',(0.,0.,-1.));
#690=DIRECTION('ref_axis',(-0.845488903030971,0.533992991387982,0.));
#691=DIRECTION('',(0.,0.,-1.));
#692=DIRECTION('center_axis',(0.42970297029703,-0.902970297029703,0.));
#693=DIRECTION('ref_axis',(0.902970297029703,0.42970297029703,0.));
#694=DIRECTION('',(-0.902970297029703,-0.42970297029703,0.));
#695=DIRECTION('',(0.,0.,1.));
#696=DIRECTION('',(-0.902970297029703,-0.42970297029703,0.));
#697=DIRECTION('',(0.,0.,1.));
#698=DIRECTION('',(0.902970297029703,0.42970297029703,0.));
#699=DIRECTION('center_axis',(-0.42970297029703,0.902970297029703,0.));
#700=DIRECTION('ref_axis',(0.902970297029703,0.42970297029703,0.));
#701=DIRECTION('center_axis',(-0.42970297029703,0.902970297029703,0.));
#702=DIRECTION('ref_axis',(0.902970297029703,0.42970297029703,0.));
#703=DIRECTION('center_axis',(0.,0.,1.));
#704=DIRECTION('ref_axis',(1.,0.,0.));
#705=DIRECTION('',(0.,-1.,0.));
#706=DIRECTION('',(1.,0.,0.));
#707=DIRECTION('center_axis',(0.,0.,1.));
#708=DIRECTION('ref_axis',(-1.,0.,0.));
#709=DIRECTION('center_axis',(0.,0.,-1.));
#710=DIRECTION('ref_axis',(0.75471348607179,0.65605453579818,0.));
#711=DIRECTION('center_axis',(0.,0.,-1.));
#712=DIRECTION('ref_axis',(-0.754713486071794,0.656054535798176,0.));
#713=DIRECTION('',(0.,0.,-1.));
#714=DIRECTION('center_axis',(0.,0.,-1.));
#715=DIRECTION('ref_axis',(-0.754713486071794,0.656054535798176,0.));
#716=DIRECTION('',(0.,0.,1.));
#717=DIRECTION('center_axis',(0.,0.,1.));
#718=DIRECTION('ref_axis',(-1.,0.,0.));
#719=DIRECTION('center_axis',(0.,0.,1.));
#720=DIRECTION('ref_axis',(-1.,0.,0.));
#721=DIRECTION('',(0.,0.,1.));
#722=DIRECTION('center_axis',(0.,0.,1.));
#723=DIRECTION('ref_axis',(0.75471348607179,0.65605453579818,0.));
#724=DIRECTION('',(0.,0.,-1.));
#725=DIRECTION('center_axis',(0.,0.,-1.));
#726=DIRECTION('ref_axis',(0.75471348607179,0.65605453579818,0.));
#727=DIRECTION('center_axis',(0.,0.,1.));
#728=DIRECTION('ref_axis',(-1.,0.,0.));
#729=DIRECTION('',(0.,0.,-1.));
#730=DIRECTION('center_axis',(0.,0.,1.));
#731=DIRECTION('ref_axis',(-1.,0.,0.));
#732=DIRECTION('center_axis',(0.,1.,0.));
#733=DIRECTION('ref_axis',(0.,0.,1.));
#734=DIRECTION('',(1.,0.,0.));
#735=DIRECTION('',(0.,0.,1.));
#736=DIRECTION('',(-1.,0.,0.));
#737=DIRECTION('center_axis',(0.,-1.,0.));
#738=DIRECTION('ref_axis',(1.,0.,0.));
#739=DIRECTION('center_axis',(0.,-1.,0.));
#740=DIRECTION('ref_axis',(1.,0.,0.));
#741=DIRECTION('center_axis',(0.,1.,0.));
#742=DIRECTION('ref_axis',(0.,0.,1.));
#743=DIRECTION('',(1.,0.,0.));
#744=DIRECTION('',(0.,0.,1.));
#745=DIRECTION('',(-1.,0.,0.));
#746=DIRECTION('',(0.,0.,-1.));
#747=DIRECTION('center_axis',(0.,-1.,0.));
#748=DIRECTION('ref_axis',(-1.,0.,0.));
#749=DIRECTION('center_axis',(0.,-1.,0.));
#750=DIRECTION('ref_axis',(-1.,0.,0.));
#751=DIRECTION('center_axis',(-1.,0.,0.));
#752=DIRECTION('ref_axis',(0.,-1.,0.));
#753=DIRECTION('',(0.,-1.,0.));
#754=DIRECTION('center_axis',(0.,0.,1.));
#755=DIRECTION('ref_axis',(1.,0.,0.));
#756=DIRECTION('center_axis',(0.,0.,1.));
#757=DIRECTION('ref_axis',(1.,0.,0.));
#758=DIRECTION('',(0.,0.,1.));
#759=DIRECTION('center_axis',(0.,0.,-1.));
#760=DIRECTION('ref_axis',(1.,0.,0.));
#761=DIRECTION('center_axis',(-0.429702970297029,-0.902970297029703,0.));
#762=DIRECTION('ref_axis',(0.902970297029703,-0.429702970297029,0.));
#763=DIRECTION('',(0.902970297029703,-0.429702970297029,0.));
#764=DIRECTION('',(-0.902970297029703,0.429702970297029,0.));
#765=DIRECTION('center_axis',(0.429702970297029,0.902970297029703,0.));
#766=DIRECTION('ref_axis',(-0.902970297029703,0.429702970297029,0.));
#767=DIRECTION('center_axis',(0.429702970297029,0.902970297029703,0.));
#768=DIRECTION('ref_axis',(-0.902970297029703,0.429702970297029,0.));
#769=DIRECTION('center_axis',(0.,0.,-1.));
#770=DIRECTION('ref_axis',(-1.,0.,0.));
#771=DIRECTION('center_axis',(0.,0.,-1.));
#772=DIRECTION('ref_axis',(1.,0.,0.));
#773=DIRECTION('center_axis',(0.,-1.,0.));
#774=DIRECTION('ref_axis',(1.,0.,0.));
#775=DIRECTION('center_axis',(0.,1.,0.));
#776=DIRECTION('ref_axis',(1.,0.,0.));
#777=DIRECTION('',(0.,-1.,0.));
#778=DIRECTION('center_axis',(0.,1.,0.));
#779=DIRECTION('ref_axis',(0.,0.,-1.));
#780=DIRECTION('center_axis',(0.,-1.,0.));
#781=DIRECTION('ref_axis',(-1.,0.,0.));
#782=DIRECTION('center_axis',(0.,-1.,0.));
#783=DIRECTION('ref_axis',(1.,0.,0.));
#784=DIRECTION('center_axis',(0.,1.,0.));
#785=DIRECTION('ref_axis',(1.,0.,0.));
#786=DIRECTION('',(0.,-1.,0.));
#787=DIRECTION('center_axis',(0.,1.,0.));
#788=DIRECTION('ref_axis',(0.,0.,-1.));
#789=DIRECTION('center_axis',(0.,-1.,0.));
#790=DIRECTION('ref_axis',(-1.,0.,0.));
#791=DIRECTION('center_axis',(0.,-1.,0.));
#792=DIRECTION('ref_axis',(-1.,0.,0.));
#793=DIRECTION('',(0.,1.,0.));
#794=DIRECTION('center_axis',(0.,-1.,0.));
#795=DIRECTION('ref_axis',(-1.,0.,0.));
#796=DIRECTION('',(0.,1.,0.));
#797=DIRECTION('center_axis',(0.,1.,0.));
#798=DIRECTION('ref_axis',(-1.,0.,0.));
#799=DIRECTION('center_axis',(0.,-1.,0.));
#800=DIRECTION('ref_axis',(-1.,0.,0.));
#801=DIRECTION('',(0.,-1.,0.));
#802=DIRECTION('center_axis',(0.,-1.,0.));
#803=DIRECTION('ref_axis',(0.,0.,-1.));
#804=DIRECTION('center_axis',(0.,-1.,0.));
#805=DIRECTION('ref_axis',(1.,0.,0.));
#806=DIRECTION('center_axis',(0.,1.,0.));
#807=DIRECTION('ref_axis',(-1.,0.,0.));
#808=DIRECTION('center_axis',(0.,-1.,0.));
#809=DIRECTION('ref_axis',(-1.,0.,0.));
#810=DIRECTION('',(0.,-1.,0.));
#811=DIRECTION('center_axis',(0.,-1.,0.));
#812=DIRECTION('ref_axis',(0.,0.,-1.));
#813=DIRECTION('center_axis',(0.,-1.,0.));
#814=DIRECTION('ref_axis',(1.,0.,0.));
#815=DIRECTION('center_axis',(0.,1.,0.));
#816=DIRECTION('ref_axis',(1.,0.,0.));
#817=DIRECTION('',(0.,1.,0.));
#818=DIRECTION('center_axis',(0.,1.,0.));
#819=DIRECTION('ref_axis',(1.,0.,0.));
#820=DIRECTION('',(0.,1.,0.));
#821=DIRECTION('center_axis',(0.,0.,1.));
#822=DIRECTION('ref_axis',(1.,0.,0.));
#823=DIRECTION('center_axis',(0.,0.,1.));
#824=DIRECTION('ref_axis',(1.,0.,0.));
#825=DIRECTION('center_axis',(0.,0.,1.));
#826=DIRECTION('ref_axis',(1.,0.,0.));
#827=DIRECTION('center_axis',(-0.577350269189626,0.577350269189626,-0.577350269189626));
#828=DIRECTION('ref_axis',(-0.707106781186548,-0.707106781186548,0.));
#829=DIRECTION('center_axis',(0.,0.,1.));
#830=DIRECTION('ref_axis',(1.,0.,0.));
#831=DIRECTION('center_axis',(-2.22044604925031E-16,0.,-1.));
#832=DIRECTION('ref_axis',(-1.,0.,2.22044604925031E-16));
#833=DIRECTION('center_axis',(0.,0.,1.));
#834=DIRECTION('ref_axis',(1.,0.,0.));
#835=DIRECTION('center_axis',(0.,-1.,0.));
#836=DIRECTION('ref_axis',(-1.,0.,0.));
#837=DIRECTION('center_axis',(0.,0.,1.));
#838=DIRECTION('ref_axis',(1.,0.,0.));
#839=DIRECTION('center_axis',(-1.,0.,0.));
#840=DIRECTION('ref_axis',(0.,0.,1.));
#841=DIRECTION('center_axis',(0.,0.,1.));
#842=DIRECTION('ref_axis',(1.,0.,0.));
#843=DIRECTION('center_axis',(0.,0.,1.));
#844=DIRECTION('ref_axis',(1.,0.,0.));
#845=DIRECTION('center_axis',(0.,0.,1.));
#846=DIRECTION('ref_axis',(1.,0.,0.));
#847=DIRECTION('center_axis',(0.,0.,1.));
#848=DIRECTION('ref_axis',(1.,0.,0.));
#849=DIRECTION('center_axis',(0.,0.,1.));
#850=DIRECTION('ref_axis',(1.,0.,0.));
#851=DIRECTION('center_axis',(0.,0.,1.));
#852=DIRECTION('ref_axis',(1.,0.,0.));
#853=CARTESIAN_POINT('',(0.,0.,0.));
#854=CARTESIAN_POINT('Origin',(18.5,-14.6315789473684,0.));
#855=CARTESIAN_POINT('',(18.929702970297,-13.7286086503387,46.));
#856=CARTESIAN_POINT('',(19.5,-14.6315789473684,46.));
#857=CARTESIAN_POINT('Origin',(18.5,-14.6315789473684,46.));
#858=CARTESIAN_POINT('',(19.5,-14.6315789473684,0.));
#859=CARTESIAN_POINT('',(19.5,-14.6315789473684,0.));
#860=CARTESIAN_POINT('',(18.929702970297,-13.7286086503387,0.));
#861=CARTESIAN_POINT('Origin',(18.5,-14.6315789473684,0.));
#862=CARTESIAN_POINT('',(18.929702970297,-13.7286086503387,0.));
#863=CARTESIAN_POINT('Origin',(19.5,-4.,0.));
#864=CARTESIAN_POINT('',(19.5,-20.8,46.));
#865=CARTESIAN_POINT('',(19.5,-16.75,46.));
#866=CARTESIAN_POINT('',(19.5,-20.8,0.));
#867=CARTESIAN_POINT('',(19.5,-20.8,14.1599858796633));
#868=CARTESIAN_POINT('',(19.5,-4.,0.));
#869=CARTESIAN_POINT('Origin',(0.,-0.399999999999998,46.));
#870=CARTESIAN_POINT('',(13.7796708774225,-11.277825834212,46.));
#871=CARTESIAN_POINT('',(2.32014077051269,-5.82449681403785,46.));
#872=CARTESIAN_POINT('',(12.5155949129301,-12.7319963730391,46.));
#873=CARTESIAN_POINT('Origin',(13.3499679071254,-12.1807961312417,46.));
#874=CARTESIAN_POINT('',(14.9986666074021,-20.8,46.));
#875=CARTESIAN_POINT('Origin',(0.,-21.,46.));
#876=CARTESIAN_POINT('',(-3.70450756643196,-20.8,46.));
#877=CARTESIAN_POINT('Origin',(-18.5,-14.6315789473684,0.));
#878=CARTESIAN_POINT('',(-18.929702970297,-13.7286086503387,0.));
#879=CARTESIAN_POINT('',(-19.5,-14.6315789473684,0.));
#880=CARTESIAN_POINT('Origin',(-18.5,-14.6315789473684,0.));
#881=CARTESIAN_POINT('',(-19.5,-14.6315789473684,46.));
#882=CARTESIAN_POINT('',(-19.5,-14.6315789473684,0.));
#883=CARTESIAN_POINT('',(-18.929702970297,-13.7286086503387,46.));
#884=CARTESIAN_POINT('Origin',(-18.5,-14.6315789473684,46.));
#885=CARTESIAN_POINT('',(-18.929702970297,-13.7286086503387,0.));
#886=CARTESIAN_POINT('Origin',(-19.5,-14.,0.));
#887=CARTESIAN_POINT('',(-13.7796708774225,-11.277825834212,46.));
#888=CARTESIAN_POINT('',(-8.91182393882953,-8.96132849720616,46.));
#889=CARTESIAN_POINT('',(-13.7796708774225,-11.277825834212,31.5));
#890=CARTESIAN_POINT('',(-13.7796708774225,-11.277825834212,31.5));
#891=CARTESIAN_POINT('',(-6.31663366336635,-7.72633663366337,31.5));
#892=CARTESIAN_POINT('',(-11.2592785021076,-10.0784285854328,31.5));
#893=CARTESIAN_POINT('',(-6.31663366336635,-7.72633663366337,0.));
#894=CARTESIAN_POINT('',(-6.31663366336635,-7.72633663366337,0.));
#895=CARTESIAN_POINT('',(-8.91182393882953,-8.96132849720616,0.));
#896=CARTESIAN_POINT('',(-18.85,-13.6906798245614,25.5));
#897=CARTESIAN_POINT('Origin',(-16.,-12.3344298245614,25.5));
#898=CARTESIAN_POINT('',(-18.85,-13.6906798245614,6.));
#899=CARTESIAN_POINT('Origin',(-16.,-12.3344298245614,6.));
#900=CARTESIAN_POINT('Origin',(0.,-0.399999999999998,46.));
#901=CARTESIAN_POINT('',(-19.5,-20.8,46.));
#902=CARTESIAN_POINT('',(-19.5,3.2,46.));
#903=CARTESIAN_POINT('',(-14.9986666074021,-20.8,46.));
#904=CARTESIAN_POINT('',(-3.70450756643196,-20.8,46.));
#905=CARTESIAN_POINT('',(-12.5155949129301,-12.7319963730391,46.));
#906=CARTESIAN_POINT('Origin',(0.,-21.,46.));
#907=CARTESIAN_POINT('Origin',(-13.3499679071254,-12.1807961312417,46.));
#908=CARTESIAN_POINT('Origin',(13.3499679071254,-12.1807961312417,31.5));
#909=CARTESIAN_POINT('',(13.7796708774225,-11.277825834212,31.5));
#910=CARTESIAN_POINT('',(13.7796708774225,-11.277825834212,31.5));
#911=CARTESIAN_POINT('',(12.5155949129301,-12.7319963730391,31.5));
#912=CARTESIAN_POINT('Origin',(13.3499679071254,-12.1807961312417,31.5));
#913=CARTESIAN_POINT('',(12.5155949129301,-12.7319963730391,31.5));
#914=CARTESIAN_POINT('Origin',(0.,-21.,31.5));
#915=CARTESIAN_POINT('',(14.9986666074021,-20.8,31.5));
#916=CARTESIAN_POINT('Origin',(0.,-21.,31.5));
#917=CARTESIAN_POINT('',(14.9986666074021,-20.8,31.5));
#918=CARTESIAN_POINT('Origin',(-13.3499679071254,-12.1807961312417,31.5));
#919=CARTESIAN_POINT('',(-12.5155949129301,-12.7319963730391,31.5));
#920=CARTESIAN_POINT('',(-12.5155949129301,-12.7319963730391,31.5));
#921=CARTESIAN_POINT('Origin',(-13.3499679071254,-12.1807961312417,31.5));
#922=CARTESIAN_POINT('Origin',(0.,-21.,31.5));
#923=CARTESIAN_POINT('',(-14.9986666074021,-20.8,31.5));
#924=CARTESIAN_POINT('',(-14.9986666074021,-20.8,31.5));
#925=CARTESIAN_POINT('Origin',(0.,-21.,31.5));
#926=CARTESIAN_POINT('Origin',(-7.40901513286392,-20.8,28.3199717593266));
#927=CARTESIAN_POINT('',(12.6984250992003,-20.8,31.5));
#928=CARTESIAN_POINT('',(-3.70450756643196,-20.8,31.5));
#929=CARTESIAN_POINT('',(12.6984250992003,-20.8,0.));
#930=CARTESIAN_POINT('',(12.6984250992003,-20.8,0.));
#931=CARTESIAN_POINT('',(-3.70450756643196,-20.8,0.));
#932=CARTESIAN_POINT('',(14.4,-20.8,25.5));
#933=CARTESIAN_POINT('Origin',(16.,-20.8,25.5));
#934=CARTESIAN_POINT('',(14.4,-20.8,6.));
#935=CARTESIAN_POINT('Origin',(16.,-20.8,6.));
#936=CARTESIAN_POINT('Origin',(-7.40901513286392,-20.8,28.3199717593266));
#937=CARTESIAN_POINT('',(-12.6984250992003,-20.8,31.5));
#938=CARTESIAN_POINT('',(-3.70450756643196,-20.8,31.5));
#939=CARTESIAN_POINT('',(-19.5,-20.8,0.));
#940=CARTESIAN_POINT('',(-19.5,-20.8,14.1599858796633));
#941=CARTESIAN_POINT('',(-12.6984250992003,-20.8,0.));
#942=CARTESIAN_POINT('',(-3.70450756643196,-20.8,0.));
#943=CARTESIAN_POINT('',(-12.6984250992003,-20.8,0.));
#944=CARTESIAN_POINT('',(-14.4,-20.8,6.));
#945=CARTESIAN_POINT('Origin',(-16.,-20.8,6.));
#946=CARTESIAN_POINT('',(-14.4,-20.8,25.5));
#947=CARTESIAN_POINT('Origin',(-16.,-20.8,25.5));
#948=CARTESIAN_POINT('Origin',(-19.5,3.2,0.));
#949=CARTESIAN_POINT('',(-19.5,3.2,0.));
#950=CARTESIAN_POINT('Origin',(0.,-21.,0.));
#951=CARTESIAN_POINT('',(6.31663366336633,-7.72633663366337,31.5));
#952=CARTESIAN_POINT('Origin',(0.,-21.,31.5));
#953=CARTESIAN_POINT('',(6.31663366336633,-7.72633663366337,0.));
#954=CARTESIAN_POINT('',(6.31663366336633,-7.72633663366337,0.));
#955=CARTESIAN_POINT('Origin',(0.,-21.,0.));
#956=CARTESIAN_POINT('Origin',(6.31663366336633,-7.72633663366337,0.));
#957=CARTESIAN_POINT('',(2.32014077051269,-5.82449681403785,0.));
#958=CARTESIAN_POINT('',(4.6675953337908,-6.94159690226449,31.5));
#959=CARTESIAN_POINT('',(18.85,-13.6906798245614,25.5));
#960=CARTESIAN_POINT('Origin',(16.,-12.3344298245614,25.5));
#961=CARTESIAN_POINT('',(18.85,-13.6906798245614,6.));
#962=CARTESIAN_POINT('Origin',(16.,-12.3344298245614,6.));
#963=CARTESIAN_POINT('Origin',(0.,-12.5,31.5));
#964=CARTESIAN_POINT('Origin',(0.,-21.,31.5));
#965=CARTESIAN_POINT('Origin',(16.,-21.,6.));
#966=CARTESIAN_POINT('',(14.4,-17.2,6.));
#967=CARTESIAN_POINT('Origin',(16.,-17.2,6.));
#968=CARTESIAN_POINT('',(14.4,-21.,6.));
#969=CARTESIAN_POINT('Origin',(16.,-17.2,6.));
#970=CARTESIAN_POINT('',(18.85,-17.2,6.));
#971=CARTESIAN_POINT('Origin',(16.,-17.2,6.));
#972=CARTESIAN_POINT('Origin',(16.,-21.,25.5));
#973=CARTESIAN_POINT('',(14.4,-17.2,25.5));
#974=CARTESIAN_POINT('Origin',(16.,-17.2,25.5));
#975=CARTESIAN_POINT('',(14.4,-21.,25.5));
#976=CARTESIAN_POINT('Origin',(16.,-17.2,25.5));
#977=CARTESIAN_POINT('',(18.85,-17.2,25.5));
#978=CARTESIAN_POINT('Origin',(16.,-17.2,25.5));
#979=CARTESIAN_POINT('Origin',(16.,-21.,25.5));
#980=CARTESIAN_POINT('',(18.85,-21.,25.5));
#981=CARTESIAN_POINT('Origin',(16.,-21.,6.));
#982=CARTESIAN_POINT('',(18.85,-21.,6.));
#983=CARTESIAN_POINT('Origin',(-16.,-21.,6.));
#984=CARTESIAN_POINT('',(-14.4,-17.2,6.));
#985=CARTESIAN_POINT('Origin',(-16.,-17.2,6.));
#986=CARTESIAN_POINT('',(-14.4,-21.,6.));
#987=CARTESIAN_POINT('Origin',(-16.,-17.2,6.));
#988=CARTESIAN_POINT('',(-18.85,-17.2,6.));
#989=CARTESIAN_POINT('Origin',(-16.,-17.2,6.));
#990=CARTESIAN_POINT('Origin',(-16.,-21.,25.5));
#991=CARTESIAN_POINT('',(-14.4,-17.2,25.5));
#992=CARTESIAN_POINT('Origin',(-16.,-17.2,25.5));
#993=CARTESIAN_POINT('',(-14.4,-21.,25.5));
#994=CARTESIAN_POINT('Origin',(-16.,-17.2,25.5));
#995=CARTESIAN_POINT('',(-18.85,-17.2,25.5));
#996=CARTESIAN_POINT('Origin',(-16.,-17.2,25.5));
#997=CARTESIAN_POINT('Origin',(-16.,-21.,25.5));
#998=CARTESIAN_POINT('',(-18.85,-21.,25.5));
#999=CARTESIAN_POINT('Origin',(-16.,-21.,6.));
#1000=CARTESIAN_POINT('',(-18.85,-21.,6.));
#1001=CARTESIAN_POINT('Origin',(0.,-21.,0.));
#1002=CARTESIAN_POINT('Origin',(0.,-21.,0.));
#1003=CARTESIAN_POINT('Origin',(0.,-0.399999999999998,0.));
#1004=CARTESIAN_POINT('Origin',(9.80776221726431,-9.80776221726431,9.80776221726431));
#1005=CARTESIAN_POINT('Origin',(-13.9055118110236,-10.,16.9875424688562));
#1006=CARTESIAN_POINT('',(0.,0.,0.));
#1007=CARTESIAN_POINT('Origin',(2.61331282407732E-14,0.,117.693146607172));
#1008=CARTESIAN_POINT('Origin',(-13.9055118110236,-10.,117.693146607172));
#1009=CARTESIAN_POINT('',(0.,0.,0.));
#1010=CARTESIAN_POINT('Origin',(0.,117.693146607172,0.));
#1011=CARTESIAN_POINT('Origin',(-13.9055118110236,-10.,117.693146607172));
#1012=CARTESIAN_POINT('',(0.,0.,0.));
#1013=CARTESIAN_POINT('Origin',(117.693146607172,0.,0.));
#1014=CARTESIAN_POINT('Origin',(-13.9055118110236,-10.,117.693146607172));
#1015=CARTESIAN_POINT('',(0.,0.,0.));
#1016=CARTESIAN_POINT('Origin',(0.,0.,0.));
#1017=CARTESIAN_POINT('Origin',(0.,0.,0.));
#1018=CARTESIAN_POINT('Origin',(0.,0.,0.));
#1019=CARTESIAN_POINT('Origin',(0.,0.,0.));
#1020=CARTESIAN_POINT('Origin',(0.,0.,0.));
#1021=UNCERTAINTY_MEASURE_WITH_UNIT(LENGTH_MEASURE(0.01),#1025,
'DISTANCE_ACCURACY_VALUE',
'Maximum model space distance between geometric entities at asserted c
onnectivities');
#1022=UNCERTAINTY_MEASURE_WITH_UNIT(LENGTH_MEASURE(0.01),#1025,
'DISTANCE_ACCURACY_VALUE',
'Maximum model space distance between geometric entities at asserted c
onnectivities');
#1023=(
GEOMETRIC_REPRESENTATION_CONTEXT(3)
GLOBAL_UNCERTAINTY_ASSIGNED_CONTEXT((#1021))
GLOBAL_UNIT_ASSIGNED_CONTEXT((#1025,#1027,#1028))
REPRESENTATION_CONTEXT('','3D')
);
#1024=(
GEOMETRIC_REPRESENTATION_CONTEXT(3)
GLOBAL_UNCERTAINTY_ASSIGNED_CONTEXT((#1022))
GLOBAL_UNIT_ASSIGNED_CONTEXT((#1025,#1027,#1028))
REPRESENTATION_CONTEXT('','3D')
);
#1025=(
LENGTH_UNIT()
NAMED_UNIT(*)
SI_UNIT(.MILLI.,.METRE.)
);
#1026=(
LENGTH_UNIT()
NAMED_UNIT(*)
SI_UNIT(.CENTI.,.METRE.)
);
#1027=(
NAMED_UNIT(*)
PLANE_ANGLE_UNIT()
SI_UNIT($,.RADIAN.)
);
#1028=(
NAMED_UNIT(*)
SI_UNIT($,.STERADIAN.)
SOLID_ANGLE_UNIT()
);
#1029=SHAPE_DEFINITION_REPRESENTATION(#1030,#1031);
#1030=PRODUCT_DEFINITION_SHAPE('',$,#1033);
#1031=SHAPE_REPRESENTATION('',(#585,#45),#1023);
#1032=PRODUCT_DEFINITION_CONTEXT('part definition',#1037,'design');
#1033=PRODUCT_DEFINITION('led_holder_02','led_holder_02',#1034,#1032);
#1034=PRODUCT_DEFINITION_FORMATION('',$,#1039);
#1035=PRODUCT_RELATED_PRODUCT_CATEGORY('led_holder_02','led_holder_02',
(#1039));
#1036=APPLICATION_PROTOCOL_DEFINITION('international standard',
'ap242_managed_model_based_3d_engineering',2011,#1037);
#1037=APPLICATION_CONTEXT('Managed model based 3d engineering');
#1038=PRODUCT_CONTEXT('part definition',#1037,'mechanical');
#1039=PRODUCT('led_holder_02','led_holder_02',$,(#1038));
#1040=PRESENTATION_STYLE_ASSIGNMENT((#1042));
#1041=PRESENTATION_STYLE_ASSIGNMENT((NULL_STYLE(.NULL.)));
#1042=SURFACE_STYLE_USAGE(.BOTH.,#1045);
#1043=SURFACE_STYLE_RENDERING_WITH_PROPERTIES($,#1049,(#1044));
#1044=SURFACE_STYLE_TRANSPARENT(0.);
#1045=SURFACE_SIDE_STYLE('',(#1046,#1043));
#1046=SURFACE_STYLE_FILL_AREA(#1047);
#1047=FILL_AREA_STYLE('',(#1048));
#1048=FILL_AREA_STYLE_COLOUR('',#1049);
#1049=COLOUR_RGB('',0.749019607843137,0.749019607843137,0.749019607843137);
ENDSEC;
END-ISO-10303-21;
